u2194_ 350 - 30.ufo
<glyph name="dollar" format="1">
  <advance width="761"/>
  <unicode hex="0024"/>
  <outline>
    <contour>
      <point x="351" y="449" type="line"/>
      <point x="149" y="487" type="line"/>
      <point x="235" y="763" type="line"/>
      <point x="351" y="762" type="line"/>
    </contour>
    <contour>
      <point x="411" y="55" type="line"/>
      <point x="411" y="376" type="line"/>
      <point x="435" y="371" type="line"/>
      <point x="629" y="153" type="line"/>
    </contour>
    <contour>
      <point x="381" y="-31" type="curve" smooth="yes"/>
      <point x="393" y="-31"/>
      <point x="404" y="-23"/>
      <point x="409" y="-12" type="curve"/>
      <point x="691" y="115" type="line" smooth="yes"/>
      <point x="710" y="123"/>
      <point x="715" y="146"/>
      <point x="701" y="162" type="curve" smooth="yes"/>
      <point x="473" y="419" type="line" smooth="yes"/>
      <point x="470" y="423"/>
      <point x="462" y="427"/>
      <point x="456" y="428" type="curve" smooth="yes"/>
      <point x="411" y="437" type="line"/>
      <point x="411" y="762" type="line"/>
      <point x="541" y="761" type="line"/>
      <point x="656" y="583" type="line" smooth="yes"/>
      <point x="665" y="569"/>
      <point x="684" y="565"/>
      <point x="697" y="574" type="curve" smooth="yes"/>
      <point x="711" y="583"/>
      <point x="715" y="602"/>
      <point x="706" y="615" type="curve" smooth="yes"/>
      <point x="583" y="807" type="line" smooth="yes"/>
      <point x="578" y="815"/>
      <point x="567" y="821"/>
      <point x="558" y="821" type="curve" smooth="yes"/>
      <point x="400" y="822" type="line"/>
      <point x="395" y="826"/>
      <point x="388" y="829"/>
      <point x="381" y="829" type="curve" smooth="yes"/>
      <point x="374" y="829"/>
      <point x="368" y="827"/>
      <point x="363" y="822" type="curve"/>
      <point x="213" y="824" type="line" smooth="yes"/>
      <point x="201" y="824"/>
      <point x="188" y="814"/>
      <point x="184" y="803" type="curve" smooth="yes"/>
      <point x="82" y="473" type="line" smooth="yes"/>
      <point x="76" y="455"/>
      <point x="87" y="438"/>
      <point x="105" y="434" type="curve" smooth="yes"/>
      <point x="351" y="387" type="line"/>
      <point x="351" y="43" type="line"/>
      <point x="97" y="223" type="line" smooth="yes"/>
      <point x="84" y="233"/>
      <point x="65" y="230"/>
      <point x="56" y="216" type="curve" smooth="yes"/>
      <point x="46" y="203"/>
      <point x="49" y="184"/>
      <point x="63" y="175" type="curve" smooth="yes"/>
      <point x="343" y="-25" type="line" smooth="yes"/>
      <point x="350" y="-31"/>
      <point x="362" y="-32"/>
      <point x="371" y="-29" type="curve"/>
      <point x="374" y="-30"/>
      <point x="377" y="-31"/>
    </contour>
  </outline>
</glyph>
<glyph name="ampersand" format="1">
  <advance width="738"/>
  <unicode hex="0026"/>
  <outline>
    <contour>
      <point x="676" y="-23" type="curve" smooth="yes"/>
      <point x="689" y="-13"/>
      <point x="692" y="6"/>
      <point x="682" y="19" type="curve" smooth="yes"/>
      <point x="527" y="226" type="line"/>
      <point x="678" y="379" type="line" smooth="yes"/>
      <point x="690" y="390"/>
      <point x="690" y="410"/>
      <point x="678" y="421" type="curve" smooth="yes"/>
      <point x="667" y="433"/>
      <point x="647" y="433"/>
      <point x="636" y="421" type="curve" smooth="yes"/>
      <point x="490" y="275" type="line"/>
      <point x="382" y="419" type="line" smooth="yes"/>
      <point x="382" y="419" type="line"/>
      <point x="551" y="471" type="line" smooth="yes"/>
      <point x="575" y="478"/>
      <point x="581" y="504"/>
      <point x="563" y="521" type="curve" smooth="yes"/>
      <point x="314" y="763" type="line" smooth="yes"/>
      <point x="294" y="782"/>
      <point x="266" y="771"/>
      <point x="263" y="744" type="curve" smooth="yes"/>
      <point x="231" y="436" type="line"/>
      <point x="206" y="428" type="line" smooth="yes"/>
      <point x="198" y="426"/>
      <point x="190" y="418"/>
      <point x="187" y="411" type="curve" smooth="yes"/>
      <point x="53" y="88" type="line" smooth="yes"/>
      <point x="43" y="63"/>
      <point x="62" y="41"/>
      <point x="88" y="48" type="curve" smooth="yes"/>
      <point x="423" y="129" type="line" smooth="yes"/>
      <point x="428" y="130"/>
      <point x="434" y="133"/>
      <point x="437" y="137" type="curve" smooth="yes"/>
      <point x="484" y="183" type="line"/>
      <point x="634" y="-17" type="line" smooth="yes"/>
      <point x="644" y="-30"/>
      <point x="663" y="-33"/>
    </contour>
    <contour>
      <point x="293" y="455" type="line"/>
      <point x="316" y="677" type="line"/>
      <point x="485" y="514" type="line"/>
    </contour>
    <contour>
      <point x="254" y="371" type="curve" smooth="yes"/>
      <point x="267" y="370"/>
      <point x="280" y="378"/>
      <point x="285" y="390" type="curve"/>
      <point x="328" y="403" type="line"/>
      <point x="328" y="396"/>
      <point x="330" y="389"/>
      <point x="334" y="383" type="curve" smooth="yes"/>
      <point x="447" y="232" type="line"/>
      <point x="401" y="185" type="line"/>
      <point x="131" y="120" type="line"/>
      <point x="237" y="375" type="line"/>
      <point x="240" y="376" type="line"/>
      <point x="244" y="373"/>
      <point x="249" y="372"/>
    </contour>
  </outline>
</glyph>
<glyph name="asterisk" format="1">
  <advance width="560"/>
  <unicode hex="002A"/>
  <outline>
    <contour>
      <point x="301" y="723" type="curve" smooth="yes"/>
      <point x="290" y="735"/>
      <point x="270" y="735"/>
      <point x="259" y="723" type="curve" smooth="yes"/>
      <point x="59" y="523" type="line" smooth="yes"/>
      <point x="47" y="512"/>
      <point x="47" y="492"/>
      <point x="59" y="481" type="curve" smooth="yes"/>
      <point x="70" y="469"/>
      <point x="90" y="469"/>
      <point x="101" y="481" type="curve" smooth="yes"/>
      <point x="301" y="681" type="line" smooth="yes"/>
      <point x="313" y="692"/>
      <point x="313" y="712"/>
    </contour>
    <contour>
      <point x="448" y="278" type="curve" smooth="yes"/>
      <point x="461" y="288"/>
      <point x="464" y="307"/>
      <point x="454" y="320" type="curve" smooth="yes"/>
      <point x="381" y="418" type="line"/>
      <point x="494" y="475" type="line" smooth="yes"/>
      <point x="508" y="483"/>
      <point x="514" y="501"/>
      <point x="507" y="516" type="curve" smooth="yes"/>
      <point x="499" y="530"/>
      <point x="481" y="536"/>
      <point x="466" y="529" type="curve" smooth="yes"/>
      <point x="344" y="466" type="line"/>
      <point x="304" y="520" type="line" smooth="yes"/>
      <point x="294" y="533"/>
      <point x="275" y="536"/>
      <point x="262" y="526" type="curve" smooth="yes"/>
      <point x="249" y="516"/>
      <point x="246" y="497"/>
      <point x="256" y="484" type="curve" smooth="yes"/>
      <point x="290" y="439" type="line"/>
      <point x="156" y="370" type="line" smooth="yes"/>
      <point x="152" y="369"/>
      <point x="147" y="364"/>
      <point x="145" y="361" type="curve" smooth="yes"/>
      <point x="115" y="319" type="line" smooth="yes"/>
      <point x="106" y="306"/>
      <point x="110" y="287"/>
      <point x="123" y="277" type="curve" smooth="yes"/>
      <point x="136" y="268"/>
      <point x="155" y="272"/>
      <point x="165" y="285" type="curve" smooth="yes"/>
      <point x="189" y="320" type="line"/>
      <point x="326" y="390" type="line"/>
      <point x="406" y="284" type="line" smooth="yes"/>
      <point x="416" y="271"/>
      <point x="435" y="268"/>
    </contour>
  </outline>
</glyph>
<glyph name="plus" format="1">
  <advance width="560"/>
  <unicode hex="002B"/>
  <outline>
    <contour>
      <point x="280" y="92" type="curve" smooth="yes"/>
      <point x="296" y="92"/>
      <point x="310" y="106"/>
      <point x="310" y="122" type="curve" smooth="yes"/>
      <point x="310" y="292" type="line"/>
      <point x="480" y="292" type="line" smooth="yes"/>
      <point x="496" y="292"/>
      <point x="510" y="306"/>
      <point x="510" y="322" type="curve" smooth="yes"/>
      <point x="510" y="338"/>
      <point x="496" y="352"/>
      <point x="480" y="352" type="curve" smooth="yes"/>
      <point x="310" y="352" type="line"/>
      <point x="310" y="522" type="line" smooth="yes"/>
      <point x="310" y="538"/>
      <point x="296" y="552"/>
      <point x="280" y="552" type="curve" smooth="yes"/>
      <point x="264" y="552"/>
      <point x="250" y="538"/>
      <point x="250" y="522" type="curve" smooth="yes"/>
      <point x="250" y="352" type="line"/>
      <point x="80" y="352" type="line" smooth="yes"/>
      <point x="64" y="352"/>
      <point x="50" y="338"/>
      <point x="50" y="322" type="curve" smooth="yes"/>
      <point x="50" y="306"/>
      <point x="64" y="292"/>
      <point x="80" y="292" type="curve" smooth="yes"/>
      <point x="250" y="292" type="line"/>
      <point x="250" y="122" type="line" smooth="yes"/>
      <point x="250" y="106"/>
      <point x="264" y="92"/>
    </contour>
  </outline>
</glyph>
<glyph name="hyphen" format="1">
  <advance width="360"/>
  <unicode hex="002D"/>
  <outline>
    <contour>
      <point x="50" y="296" type="curve" smooth="yes"/>
      <point x="50" y="280"/>
      <point x="64" y="266"/>
      <point x="80" y="266" type="curve" smooth="yes"/>
      <point x="280" y="266" type="line" smooth="yes"/>
      <point x="296" y="266"/>
      <point x="310" y="280"/>
      <point x="310" y="296" type="curve" smooth="yes"/>
      <point x="310" y="312"/>
      <point x="296" y="326"/>
      <point x="280" y="326" type="curve" smooth="yes"/>
      <point x="80" y="326" type="line" smooth="yes"/>
      <point x="64" y="326"/>
      <point x="50" y="312"/>
    </contour>
  </outline>
</glyph>
<glyph name="zero" format="1">
  <advance width="760"/>
  <unicode hex="0030"/>
  <outline>
    <contour>
      <point x="283" y="-28" type="curve" smooth="yes"/>
      <point x="285" y="-28" type="line"/>
      <point x="285" y="-28"/>
      <point x="285" y="-28"/>
      <point x="285" y="-28" type="curve"/>
      <point x="627" y="8" type="line" smooth="yes"/>
      <point x="639" y="10"/>
      <point x="651" y="21"/>
      <point x="653" y="33" type="curve" smooth="yes"/>
      <point x="710" y="377" type="line" smooth="yes"/>
      <point x="710" y="379"/>
      <point x="710" y="383"/>
      <point x="710" y="385" type="curve" smooth="yes"/>
      <point x="674" y="724" type="line" smooth="yes"/>
      <point x="673" y="731"/>
      <point x="668" y="739"/>
      <point x="662" y="744" type="curve"/>
      <point x="660" y="750"/>
      <point x="657" y="754"/>
      <point x="652" y="758" type="curve" smooth="yes"/>
      <point x="642" y="766"/>
      <point x="627" y="766"/>
      <point x="617" y="758" type="curve"/>
      <point x="315" y="831" type="line" smooth="yes"/>
      <point x="305" y="834"/>
      <point x="292" y="829"/>
      <point x="285" y="822" type="curve" smooth="yes"/>
      <point x="57" y="562" type="line" smooth="yes"/>
      <point x="53" y="557"/>
      <point x="50" y="548"/>
      <point x="50" y="542" type="curve" smooth="yes"/>
      <point x="50" y="195" type="line" smooth="yes"/>
      <point x="50" y="188"/>
      <point x="54" y="179"/>
      <point x="59" y="174" type="curve" smooth="yes"/>
      <point x="124" y="111" type="line"/>
      <point x="96" y="74" type="line" smooth="yes"/>
      <point x="86" y="61"/>
      <point x="89" y="42"/>
      <point x="102" y="32" type="curve" smooth="yes"/>
      <point x="115" y="22"/>
      <point x="134" y="25"/>
      <point x="144" y="38" type="curve" smooth="yes"/>
      <point x="168" y="70" type="line"/>
      <point x="254" y="-13" type="line"/>
      <point x="260" y="-23"/>
      <point x="271" y="-29"/>
    </contour>
    <contour>
      <point x="161" y="160" type="line"/>
      <point x="110" y="208" type="line"/>
      <point x="110" y="531" type="line"/>
      <point x="319" y="769" type="line"/>
      <point x="575" y="706" type="line"/>
    </contour>
    <contour>
      <point x="293" y="33" type="line"/>
      <point x="204" y="118" type="line"/>
      <point x="620" y="666" type="line"/>
      <point x="650" y="383" type="line"/>
      <point x="598" y="66" type="line"/>
    </contour>
  </outline>
</glyph>
<glyph name="one" format="1">
  <advance width="760"/>
  <unicode hex="0031"/>
  <outline>
    <contour>
      <point x="80" y="-29" type="curve" smooth="yes"/>
      <point x="680" y="-29" type="line" smooth="yes"/>
      <point x="696" y="-29"/>
      <point x="710" y="-15"/>
      <point x="710" y="1" type="curve" smooth="yes"/>
      <point x="710" y="17"/>
      <point x="696" y="31"/>
      <point x="680" y="31" type="curve" smooth="yes"/>
      <point x="238" y="31" type="line"/>
      <point x="404" y="264" type="line" smooth="yes"/>
      <point x="407" y="268"/>
      <point x="410" y="276"/>
      <point x="410" y="281" type="curve" smooth="yes"/>
      <point x="410" y="631" type="line" smooth="yes"/>
      <point x="410" y="649"/>
      <point x="395" y="663"/>
      <point x="377" y="661" type="curve" smooth="yes"/>
      <point x="77" y="631" type="line" smooth="yes"/>
      <point x="61" y="629"/>
      <point x="49" y="614"/>
      <point x="50" y="598" type="curve" smooth="yes"/>
      <point x="52" y="582"/>
      <point x="67" y="570"/>
      <point x="83" y="571" type="curve" smooth="yes"/>
      <point x="350" y="598" type="line"/>
      <point x="350" y="291" type="line"/>
      <point x="165" y="31" type="line"/>
      <point x="80" y="31" type="line" smooth="yes"/>
      <point x="64" y="31"/>
      <point x="50" y="17"/>
      <point x="50" y="1" type="curve" smooth="yes"/>
      <point x="50" y="-15"/>
      <point x="64" y="-29"/>
    </contour>
  </outline>
</glyph>
<glyph name="two" format="1">
  <advance width="760"/>
  <unicode hex="0032"/>
  <outline>
    <contour>
      <point x="330" y="-30" type="curve" smooth="yes"/>
      <point x="680" y="-30" type="line" smooth="yes"/>
      <point x="696" y="-30"/>
      <point x="710" y="-16"/>
      <point x="710" y="0" type="curve" smooth="yes"/>
      <point x="710" y="16"/>
      <point x="696" y="30"/>
      <point x="680" y="30" type="curve" smooth="yes"/>
      <point x="342" y="30" type="line"/>
      <point x="132" y="228" type="line"/>
      <point x="395" y="374" type="line"/>
      <point x="693" y="539" type="line" smooth="yes"/>
      <point x="712" y="550"/>
      <point x="715" y="573"/>
      <point x="699" y="588" type="curve" smooth="yes"/>
      <point x="440" y="822" type="line" smooth="yes"/>
      <point x="433" y="829"/>
      <point x="420" y="832"/>
      <point x="411" y="828" type="curve" smooth="yes"/>
      <point x="82" y="720" type="line" smooth="yes"/>
      <point x="72" y="716"/>
      <point x="63" y="705"/>
      <point x="62" y="695" type="curve" smooth="yes"/>
      <point x="50" y="604" type="line" smooth="yes"/>
      <point x="48" y="588"/>
      <point x="60" y="572"/>
      <point x="76" y="570" type="curve" smooth="yes"/>
      <point x="92" y="568"/>
      <point x="108" y="580"/>
      <point x="110" y="596" type="curve" smooth="yes"/>
      <point x="119" y="669" type="line"/>
      <point x="413" y="766" type="line"/>
      <point x="627" y="571" type="line"/>
      <point x="365" y="426" type="line"/>
      <point x="67" y="261" type="line" smooth="yes"/>
      <point x="48" y="250"/>
      <point x="45" y="228"/>
      <point x="61" y="213" type="curve" smooth="yes"/>
      <point x="309" y="-22" type="line" smooth="yes"/>
      <point x="314" y="-26"/>
      <point x="323" y="-30"/>
    </contour>
  </outline>
</glyph>
<glyph name="three" format="1">
  <advance width="755"/>
  <unicode hex="0033"/>
  <outline>
    <contour>
      <point x="372" y="-27" type="curve" smooth="yes"/>
      <point x="686" y="109" type="line" smooth="yes"/>
      <point x="706" y="117"/>
      <point x="711" y="139"/>
      <point x="698" y="156" type="curve" smooth="yes"/>
      <point x="489" y="401" type="line"/>
      <point x="698" y="646" type="line" smooth="yes"/>
      <point x="711" y="663"/>
      <point x="706" y="685"/>
      <point x="686" y="693" type="curve" smooth="yes"/>
      <point x="372" y="829" type="line" smooth="yes"/>
      <point x="363" y="832"/>
      <point x="350" y="831"/>
      <point x="343" y="825" type="curve" smooth="yes"/>
      <point x="63" y="625" type="line" smooth="yes"/>
      <point x="49" y="616"/>
      <point x="46" y="597"/>
      <point x="56" y="584" type="curve" smooth="yes"/>
      <point x="65" y="570"/>
      <point x="84" y="567"/>
      <point x="97" y="577" type="curve" smooth="yes"/>
      <point x="364" y="767" type="line"/>
      <point x="626" y="654" type="line"/>
      <point x="427" y="420" type="line" smooth="yes"/>
      <point x="418" y="410"/>
      <point x="418" y="392"/>
      <point x="427" y="382" type="curve" smooth="yes"/>
      <point x="626" y="148" type="line"/>
      <point x="364" y="35" type="line"/>
      <point x="97" y="225" type="line" smooth="yes"/>
      <point x="84" y="235"/>
      <point x="65" y="232"/>
      <point x="56" y="218" type="curve" smooth="yes"/>
      <point x="46" y="205"/>
      <point x="49" y="186"/>
      <point x="63" y="177" type="curve" smooth="yes"/>
      <point x="343" y="-23" type="line" smooth="yes"/>
      <point x="350" y="-29"/>
      <point x="363" y="-30"/>
    </contour>
  </outline>
</glyph>
<glyph name="four" format="1">
  <advance width="568"/>
  <unicode hex="0034"/>
  <outline>
    <contour>
      <point x="488" y="-29" type="curve" smooth="yes"/>
      <point x="504" y="-29"/>
      <point x="518" y="-15"/>
      <point x="518" y="1" type="curve" smooth="yes"/>
      <point x="518" y="600" type="line" smooth="yes"/>
      <point x="518" y="616"/>
      <point x="504" y="630"/>
      <point x="488" y="630" type="curve" smooth="yes"/>
      <point x="472" y="630"/>
      <point x="458" y="616"/>
      <point x="458" y="600" type="curve" smooth="yes"/>
      <point x="458" y="158" type="line"/>
      <point x="233" y="319" type="line"/>
      <point x="113" y="616" type="line"/>
      <point x="214" y="785" type="line" smooth="yes"/>
      <point x="222" y="798"/>
      <point x="217" y="817"/>
      <point x="203" y="826" type="curve" smooth="yes"/>
      <point x="190" y="834"/>
      <point x="171" y="829"/>
      <point x="162" y="815" type="curve" smooth="yes"/>
      <point x="54" y="634" type="line" smooth="yes"/>
      <point x="49" y="627"/>
      <point x="48" y="615"/>
      <point x="52" y="608" type="curve" smooth="yes"/>
      <point x="180" y="289" type="line" smooth="yes"/>
      <point x="182" y="284"/>
      <point x="187" y="278"/>
      <point x="191" y="276" type="curve" smooth="yes"/>
      <point x="458" y="85" type="line"/>
      <point x="458" y="1" type="line" smooth="yes"/>
      <point x="458" y="-15"/>
      <point x="472" y="-29"/>
    </contour>
  </outline>
</glyph>
<glyph name="five" format="1">
  <advance width="760"/>
  <unicode hex="0035"/>
  <outline>
    <contour>
      <point x="372" y="-27" type="curve" smooth="yes"/>
      <point x="686" y="109" type="line" smooth="yes"/>
      <point x="706" y="117"/>
      <point x="711" y="139"/>
      <point x="698" y="156" type="curve" smooth="yes"/>
      <point x="473" y="420" type="line" smooth="yes"/>
      <point x="468" y="426"/>
      <point x="458" y="431"/>
      <point x="450" y="431" type="curve" smooth="yes"/>
      <point x="132" y="431" type="line"/>
      <point x="146" y="720" type="line"/>
      <point x="462" y="771" type="line"/>
      <point x="680" y="771" type="line" smooth="yes"/>
      <point x="696" y="771"/>
      <point x="710" y="785"/>
      <point x="710" y="801" type="curve" smooth="yes"/>
      <point x="710" y="817"/>
      <point x="696" y="831"/>
      <point x="680" y="831" type="curve" smooth="yes"/>
      <point x="460" y="831" type="line" smooth="yes"/>
      <point x="459" y="831"/>
      <point x="457" y="831"/>
      <point x="455" y="831" type="curve" smooth="yes"/>
      <point x="113" y="775" type="line" smooth="yes"/>
      <point x="99" y="773"/>
      <point x="88" y="761"/>
      <point x="87" y="747" type="curve" smooth="yes"/>
      <point x="70" y="403" type="line" smooth="yes"/>
      <point x="69" y="385"/>
      <point x="83" y="371"/>
      <point x="100" y="371" type="curve" smooth="yes"/>
      <point x="436" y="371" type="line"/>
      <point x="626" y="148" type="line"/>
      <point x="364" y="35" type="line"/>
      <point x="97" y="225" type="line" smooth="yes"/>
      <point x="84" y="235"/>
      <point x="65" y="232"/>
      <point x="56" y="218" type="curve" smooth="yes"/>
      <point x="46" y="205"/>
      <point x="49" y="186"/>
      <point x="63" y="177" type="curve" smooth="yes"/>
      <point x="343" y="-23" type="line" smooth="yes"/>
      <point x="350" y="-29"/>
      <point x="363" y="-30"/>
    </contour>
  </outline>
</glyph>
<glyph name="six" format="1">
  <advance width="760"/>
  <unicode hex="0036"/>
  <outline>
    <contour>
      <point x="473" y="-19" type="curve" smooth="yes"/>
      <point x="700" y="240" type="line" smooth="yes"/>
      <point x="714" y="257"/>
      <point x="709" y="279"/>
      <point x="690" y="288" type="curve" smooth="yes"/>
      <point x="375" y="427" type="line"/>
      <point x="134" y="599" type="line"/>
      <point x="151" y="726" type="line"/>
      <point x="460" y="769" type="line"/>
      <point x="659" y="579" type="line" smooth="yes"/>
      <point x="671" y="568"/>
      <point x="691" y="569"/>
      <point x="702" y="580" type="curve" smooth="yes"/>
      <point x="713" y="592"/>
      <point x="712" y="612"/>
      <point x="701" y="623" type="curve" smooth="yes"/>
      <point x="491" y="823" type="line" smooth="yes"/>
      <point x="485" y="828"/>
      <point x="474" y="832"/>
      <point x="466" y="831" type="curve" smooth="yes"/>
      <point x="119" y="782" type="line" smooth="yes"/>
      <point x="107" y="780"/>
      <point x="96" y="769"/>
      <point x="94" y="756" type="curve" smooth="yes"/>
      <point x="78" y="631" type="line"/>
      <point x="69" y="630"/>
      <point x="61" y="626"/>
      <point x="56" y="618" type="curve" smooth="yes"/>
      <point x="46" y="605"/>
      <point x="49" y="586"/>
      <point x="63" y="577" type="curve" smooth="yes"/>
      <point x="70" y="571" type="line"/>
      <point x="50" y="415" type="line" smooth="yes"/>
      <point x="50" y="413"/>
      <point x="50" y="410"/>
      <point x="50" y="408" type="curve" smooth="yes"/>
      <point x="82" y="61" type="line" smooth="yes"/>
      <point x="83" y="48"/>
      <point x="94" y="36"/>
      <point x="106" y="34" type="curve" smooth="yes"/>
      <point x="445" y="-29" type="line" smooth="yes"/>
      <point x="454" y="-30"/>
      <point x="466" y="-26"/>
    </contour>
    <contour>
      <point x="343" y="377" type="line" smooth="yes"/>
      <point x="344" y="376"/>
      <point x="346" y="374"/>
      <point x="348" y="374" type="curve" smooth="yes"/>
      <point x="628" y="249" type="line"/>
      <point x="439" y="34" type="line"/>
      <point x="139" y="89" type="line"/>
      <point x="110" y="410" type="line"/>
      <point x="126" y="532" type="line"/>
    </contour>
  </outline>
</glyph>
<glyph name="seven" format="1">
  <advance width="737"/>
  <unicode hex="0037"/>
  <outline>
    <contour>
      <point x="305" y="-20" type="curve" smooth="yes"/>
      <point x="493" y="264" type="line"/>
      <point x="682" y="547" type="line" smooth="yes"/>
      <point x="690" y="559"/>
      <point x="688" y="576"/>
      <point x="677" y="586" type="curve" smooth="yes"/>
      <point x="419" y="819" type="line" smooth="yes"/>
      <point x="415" y="824"/>
      <point x="406" y="827"/>
      <point x="399" y="827" type="curve" smooth="yes"/>
      <point x="80" y="827" type="line" smooth="yes"/>
      <point x="64" y="827"/>
      <point x="50" y="813"/>
      <point x="50" y="797" type="curve" smooth="yes"/>
      <point x="50" y="781"/>
      <point x="64" y="767"/>
      <point x="80" y="767" type="curve" smooth="yes"/>
      <point x="388" y="767" type="line"/>
      <point x="618" y="559" type="line"/>
      <point x="443" y="297" type="line"/>
      <point x="255" y="14" type="line" smooth="yes"/>
      <point x="246" y="0"/>
      <point x="250" y="-19"/>
      <point x="263" y="-28" type="curve" smooth="yes"/>
      <point x="277" y="-37"/>
      <point x="296" y="-33"/>
    </contour>
  </outline>
</glyph>
<glyph name="eight" format="1">
  <advance width="761"/>
  <unicode hex="0038"/>
  <outline>
    <contour>
      <point x="430" y="-23" type="curve" smooth="yes"/>
      <point x="700" y="197" type="line" smooth="yes"/>
      <point x="717" y="212"/>
      <point x="715" y="235"/>
      <point x="696" y="246" type="curve" smooth="yes"/>
      <point x="488" y="371" type="line"/>
      <point x="495" y="373"/>
      <point x="502" y="377"/>
      <point x="506" y="384" type="curve" smooth="yes"/>
      <point x="697" y="675" type="line" smooth="yes"/>
      <point x="708" y="692"/>
      <point x="701" y="713"/>
      <point x="681" y="720" type="curve" smooth="yes"/>
      <point x="350" y="829" type="line" smooth="yes"/>
      <point x="341" y="831"/>
      <point x="328" y="829"/>
      <point x="321" y="823" type="curve" smooth="yes"/>
      <point x="61" y="595" type="line" smooth="yes"/>
      <point x="45" y="580"/>
      <point x="47" y="557"/>
      <point x="66" y="546" type="curve" smooth="yes"/>
      <point x="282" y="422" type="line"/>
      <point x="280" y="421"/>
      <point x="278" y="420"/>
      <point x="277" y="418" type="curve" smooth="yes"/>
      <point x="63" y="143" type="line" smooth="yes"/>
      <point x="49" y="126"/>
      <point x="55" y="104"/>
      <point x="75" y="97" type="curve" smooth="yes"/>
      <point x="400" y="-28" type="line" smooth="yes"/>
      <point x="409" y="-31"/>
      <point x="423" y="-29"/>
    </contour>
    <contour>
      <point x="465" y="430" type="line"/>
      <point x="389" y="430" type="line"/>
      <point x="133" y="577" type="line"/>
      <point x="348" y="766" type="line"/>
      <point x="625" y="675" type="line"/>
    </contour>
    <contour>
      <point x="629" y="217" type="line"/>
      <point x="405" y="34" type="line"/>
      <point x="135" y="138" type="line"/>
      <point x="316" y="370" type="line"/>
      <point x="373" y="370" type="line"/>
    </contour>
  </outline>
</glyph>
<glyph name="nine" format="1">
  <advance width="760"/>
  <unicode hex="0039"/>
  <outline>
    <contour>
      <point x="417" y="424" type="line" smooth="yes"/>
      <point x="416" y="425"/>
      <point x="414" y="427"/>
      <point x="412" y="427" type="curve" smooth="yes"/>
      <point x="132" y="552" type="line"/>
      <point x="321" y="767" type="line"/>
      <point x="621" y="712" type="line"/>
      <point x="650" y="391" type="line"/>
      <point x="634" y="269" type="line"/>
    </contour>
    <contour>
      <point x="294" y="-30" type="curve" smooth="yes"/>
      <point x="641" y="19" type="line" smooth="yes"/>
      <point x="653" y="21"/>
      <point x="664" y="32"/>
      <point x="666" y="45" type="curve" smooth="yes"/>
      <point x="682" y="170" type="line"/>
      <point x="691" y="171"/>
      <point x="699" y="175"/>
      <point x="704" y="183" type="curve" smooth="yes"/>
      <point x="714" y="196"/>
      <point x="711" y="215"/>
      <point x="697" y="224" type="curve" smooth="yes"/>
      <point x="690" y="230" type="line"/>
      <point x="710" y="386" type="line" smooth="yes"/>
      <point x="710" y="388"/>
      <point x="710" y="391"/>
      <point x="710" y="393" type="curve" smooth="yes"/>
      <point x="678" y="740" type="line" smooth="yes"/>
      <point x="677" y="753"/>
      <point x="666" y="765"/>
      <point x="654" y="767" type="curve" smooth="yes"/>
      <point x="315" y="830" type="line" smooth="yes"/>
      <point x="306" y="831"/>
      <point x="294" y="827"/>
      <point x="287" y="820" type="curve" smooth="yes"/>
      <point x="60" y="561" type="line" smooth="yes"/>
      <point x="46" y="544"/>
      <point x="51" y="522"/>
      <point x="70" y="513" type="curve" smooth="yes"/>
      <point x="385" y="374" type="line"/>
      <point x="626" y="202" type="line"/>
      <point x="609" y="75" type="line"/>
      <point x="300" y="32" type="line"/>
      <point x="101" y="222" type="line" smooth="yes"/>
      <point x="89" y="233"/>
      <point x="69" y="232"/>
      <point x="58" y="221" type="curve" smooth="yes"/>
      <point x="47" y="209"/>
      <point x="48" y="189"/>
      <point x="59" y="178" type="curve" smooth="yes"/>
      <point x="269" y="-22" type="line" smooth="yes"/>
      <point x="275" y="-27"/>
      <point x="286" y="-31"/>
    </contour>
  </outline>
</glyph>
<glyph name="less" format="1">
  <advance width="472"/>
  <unicode hex="003C"/>
  <outline>
    <contour>
      <point x="419" y="90" type="curve" smooth="yes"/>
      <point x="426" y="104"/>
      <point x="420" y="123"/>
      <point x="405" y="130" type="curve" smooth="yes"/>
      <point x="364" y="150" type="line"/>
      <point x="135" y="341" type="line"/>
      <point x="405" y="476" type="line" smooth="yes"/>
      <point x="420" y="483"/>
      <point x="426" y="502"/>
      <point x="419" y="516" type="curve" smooth="yes"/>
      <point x="412" y="531"/>
      <point x="393" y="537"/>
      <point x="379" y="530" type="curve" smooth="yes"/>
      <point x="67" y="374" type="line" smooth="yes"/>
      <point x="47" y="364"/>
      <point x="44" y="339"/>
      <point x="62" y="324" type="curve" smooth="yes"/>
      <point x="328" y="102" type="line" smooth="yes"/>
      <point x="330" y="101"/>
      <point x="332" y="99"/>
      <point x="334" y="98" type="curve" smooth="yes"/>
      <point x="379" y="76" type="line" smooth="yes"/>
      <point x="393" y="69"/>
      <point x="412" y="75"/>
    </contour>
  </outline>
</glyph>
<glyph name="greater" format="1">
  <advance width="472"/>
  <unicode hex="003E"/>
  <outline>
    <contour>
      <point x="93" y="93" type="curve" smooth="yes"/>
      <point x="138" y="115" type="line" smooth="yes"/>
      <point x="140" y="116"/>
      <point x="142" y="118"/>
      <point x="144" y="119" type="curve" smooth="yes"/>
      <point x="410" y="341" type="line" smooth="yes"/>
      <point x="428" y="356"/>
      <point x="425" y="381"/>
      <point x="405" y="391" type="curve" smooth="yes"/>
      <point x="93" y="547" type="line" smooth="yes"/>
      <point x="79" y="554"/>
      <point x="60" y="548"/>
      <point x="53" y="533" type="curve" smooth="yes"/>
      <point x="46" y="519"/>
      <point x="52" y="500"/>
      <point x="67" y="493" type="curve" smooth="yes"/>
      <point x="337" y="358" type="line"/>
      <point x="108" y="167" type="line"/>
      <point x="67" y="147" type="line" smooth="yes"/>
      <point x="52" y="140"/>
      <point x="46" y="121"/>
      <point x="53" y="107" type="curve" smooth="yes"/>
      <point x="60" y="92"/>
      <point x="79" y="86"/>
    </contour>
  </outline>
</glyph>
<glyph name="question" format="1">
  <advance width="610"/>
  <unicode hex="003F"/>
  <outline>
    <contour>
      <point x="300" y="178" type="curve" smooth="yes"/>
      <point x="551" y="422" type="line" smooth="yes"/>
      <point x="557" y="428"/>
      <point x="561" y="439"/>
      <point x="560" y="448" type="curve" smooth="yes"/>
      <point x="510" y="789" type="line" smooth="yes"/>
      <point x="508" y="805"/>
      <point x="493" y="816"/>
      <point x="477" y="814" type="curve" smooth="yes"/>
      <point x="131" y="774" type="line" smooth="yes"/>
      <point x="121" y="773"/>
      <point x="110" y="764"/>
      <point x="106" y="755" type="curve" smooth="yes"/>
      <point x="52" y="609" type="line" smooth="yes"/>
      <point x="46" y="594"/>
      <point x="54" y="577"/>
      <point x="70" y="571" type="curve" smooth="yes"/>
      <point x="85" y="565"/>
      <point x="102" y="573"/>
      <point x="108" y="589" type="curve" smooth="yes"/>
      <point x="156" y="716" type="line"/>
      <point x="455" y="751" type="line"/>
      <point x="498" y="454" type="line"/>
      <point x="258" y="222" type="line" smooth="yes"/>
      <point x="246" y="210"/>
      <point x="246" y="191"/>
      <point x="257" y="179" type="curve" smooth="yes"/>
      <point x="269" y="167"/>
      <point x="288" y="167"/>
    </contour>
    <contour>
      <point x="279" y="-30" type="curve" smooth="yes"/>
      <point x="295" y="-30"/>
      <point x="309" y="-16"/>
      <point x="309" y="0" type="curve" smooth="yes"/>
      <point x="309" y="11" type="line" smooth="yes"/>
      <point x="309" y="27"/>
      <point x="295" y="41"/>
      <point x="279" y="41" type="curve" smooth="yes"/>
      <point x="263" y="41"/>
      <point x="249" y="27"/>
      <point x="249" y="11" type="curve" smooth="yes"/>
      <point x="249" y="0" type="line" smooth="yes"/>
      <point x="249" y="-16"/>
      <point x="263" y="-30"/>
    </contour>
  </outline>
</glyph>
<glyph name="at" format="1">
  <advance width="760"/>
  <unicode hex="0040"/>
  <outline>
    <contour>
      <point x="510" y="-45" type="curve" smooth="yes"/>
      <point x="512" y="-29"/>
      <point x="499" y="-14"/>
      <point x="483" y="-12" type="curve" smooth="yes"/>
      <point x="165" y="22" type="line"/>
      <point x="110" y="332" type="line"/>
      <point x="125" y="651" type="line"/>
      <point x="419" y="725" type="line"/>
      <point x="647" y="508" type="line"/>
      <point x="582" y="223" type="line"/>
      <point x="510" y="254" type="line"/>
      <point x="510" y="558" type="line" smooth="yes"/>
      <point x="510" y="563"/>
      <point x="509" y="567"/>
      <point x="507" y="571" type="curve"/>
      <point x="505" y="575"/>
      <point x="502" y="579"/>
      <point x="499" y="581" type="curve" smooth="yes"/>
      <point x="496" y="583"/>
      <point x="493" y="585"/>
      <point x="490" y="586" type="curve"/>
      <point x="487" y="587"/>
      <point x="483" y="588"/>
      <point x="480" y="588" type="curve" smooth="yes"/>
      <point x="475" y="588"/>
      <point x="471" y="587"/>
      <point x="467" y="585" type="curve"/>
      <point x="463" y="583"/>
      <point x="460" y="580"/>
      <point x="457" y="577" type="curve" smooth="yes"/>
      <point x="261" y="338" type="line" smooth="yes"/>
      <point x="248" y="322"/>
      <point x="253" y="300"/>
      <point x="272" y="292" type="curve" smooth="yes"/>
      <point x="450" y="214" type="line"/>
      <point x="450" y="158" type="line" smooth="yes"/>
      <point x="450" y="142"/>
      <point x="464" y="128"/>
      <point x="480" y="128" type="curve" smooth="yes"/>
      <point x="496" y="128"/>
      <point x="510" y="142"/>
      <point x="510" y="158" type="curve" smooth="yes"/>
      <point x="510" y="188" type="line"/>
      <point x="591" y="153" type="line" smooth="yes"/>
      <point x="609" y="145"/>
      <point x="628" y="155"/>
      <point x="632" y="174" type="curve" smooth="yes"/>
      <point x="709" y="512" type="line" smooth="yes"/>
      <point x="711" y="521"/>
      <point x="708" y="533"/>
      <point x="701" y="540" type="curve" smooth="yes"/>
      <point x="449" y="780" type="line" smooth="yes"/>
      <point x="442" y="786"/>
      <point x="430" y="789"/>
      <point x="421" y="787" type="curve" smooth="yes"/>
      <point x="89" y="704" type="line" smooth="yes"/>
      <point x="77" y="701"/>
      <point x="67" y="688"/>
      <point x="67" y="676" type="curve" smooth="yes"/>
      <point x="50" y="331" type="line" smooth="yes"/>
      <point x="50" y="329"/>
      <point x="50" y="326"/>
      <point x="50" y="324" type="curve" smooth="yes"/>
      <point x="110" y="-11" type="line" smooth="yes"/>
      <point x="113" y="-23"/>
      <point x="124" y="-34"/>
      <point x="137" y="-36" type="curve" smooth="yes"/>
      <point x="477" y="-72" type="line" smooth="yes"/>
      <point x="493" y="-74"/>
      <point x="508" y="-61"/>
    </contour>
    <contour>
      <point x="450" y="280" type="line"/>
      <point x="332" y="331" type="line"/>
      <point x="450" y="474" type="line"/>
    </contour>
  </outline>
</glyph>
<glyph name="A" format="1">
  <advance width="760"/>
  <unicode hex="0041"/>
  <outline>
    <contour>
      <point x="680" y="-34" type="curve" smooth="yes"/>
      <point x="696" y="-34"/>
      <point x="710" y="-20"/>
      <point x="710" y="-4" type="curve" smooth="yes"/>
      <point x="710" y="499" type="line" smooth="yes"/>
      <point x="710" y="504"/>
      <point x="708" y="511"/>
      <point x="706" y="515" type="curve" smooth="yes"/>
      <point x="524" y="811" type="line" smooth="yes"/>
      <point x="519" y="820"/>
      <point x="507" y="826"/>
      <point x="497" y="826" type="curve" smooth="yes"/>
      <point x="162" y="806" type="line" smooth="yes"/>
      <point x="150" y="805"/>
      <point x="138" y="795"/>
      <point x="135" y="783" type="curve" smooth="yes"/>
      <point x="51" y="446" type="line" smooth="yes"/>
      <point x="50" y="444"/>
      <point x="50" y="441"/>
      <point x="50" y="439" type="curve" smooth="yes"/>
      <point x="55" y="98" type="line" smooth="yes"/>
      <point x="55" y="69"/>
      <point x="86" y="57"/>
      <point x="106" y="78" type="curve" smooth="yes"/>
      <point x="342" y="316" type="line"/>
      <point x="650" y="316" type="line"/>
      <point x="650" y="-4" type="line" smooth="yes"/>
      <point x="650" y="-20"/>
      <point x="664" y="-34"/>
    </contour>
    <contour>
      <point x="309" y="367" type="curve" smooth="yes"/>
      <point x="114" y="171" type="line"/>
      <point x="110" y="435" type="line"/>
      <point x="188" y="748" type="line"/>
      <point x="483" y="765" type="line"/>
      <point x="650" y="491" type="line"/>
      <point x="650" y="376" type="line"/>
      <point x="330" y="376" type="line" smooth="yes"/>
      <point x="323" y="376"/>
      <point x="314" y="372"/>
    </contour>
  </outline>
</glyph>
<glyph name="B" format="1">
  <advance width="752"/>
  <unicode hex="0042"/>
  <outline>
    <contour>
      <point x="356" y="-24" type="curve" smooth="yes"/>
      <point x="682" y="97" type="line" smooth="yes"/>
      <point x="702" y="105"/>
      <point x="708" y="127"/>
      <point x="695" y="144" type="curve" smooth="yes"/>
      <point x="507" y="391" type="line"/>
      <point x="695" y="681" type="line" smooth="yes"/>
      <point x="707" y="698"/>
      <point x="699" y="719"/>
      <point x="679" y="725" type="curve" smooth="yes"/>
      <point x="347" y="833" type="line" smooth="yes"/>
      <point x="338" y="836"/>
      <point x="325" y="833"/>
      <point x="318" y="826" type="curve" smooth="yes"/>
      <point x="60" y="591" type="line" smooth="yes"/>
      <point x="54" y="586"/>
      <point x="50" y="576"/>
      <point x="50" y="568" type="curve"/>
      <point x="50" y="222" type="line"/>
      <point x="50" y="214"/>
      <point x="55" y="204"/>
      <point x="61" y="199" type="curve" smooth="yes"/>
      <point x="327" y="-19" type="line" smooth="yes"/>
      <point x="334" y="-25"/>
      <point x="348" y="-27"/>
    </contour>
    <contour>
      <point x="460" y="434" type="line" smooth="yes"/>
      <point x="110" y="434" type="line"/>
      <point x="110" y="555" type="line"/>
      <point x="345" y="770" type="line"/>
      <point x="624" y="680" type="line"/>
      <point x="463" y="434" type="line"/>
    </contour>
    <contour>
      <point x="623" y="140" type="line"/>
      <point x="352" y="38" type="line"/>
      <point x="110" y="236" type="line"/>
      <point x="110" y="374" type="line"/>
      <point x="445" y="374" type="line"/>
    </contour>
  </outline>
</glyph>
<glyph name="F" format="1">
  <advance width="759"/>
  <unicode hex="0046"/>
  <outline>
    <contour>
      <point x="110" y="0" type="curve" smooth="yes"/>
      <point x="111" y="137" type="line"/>
      <point x="341" y="381" type="line" smooth="yes"/>
      <point x="352" y="392"/>
      <point x="352" y="411"/>
      <point x="342" y="422" type="curve" smooth="yes"/>
      <point x="133" y="647" type="line"/>
      <point x="394" y="766" type="line"/>
      <point x="662" y="577" type="line" smooth="yes"/>
      <point x="675" y="568"/>
      <point x="694" y="571"/>
      <point x="704" y="585" type="curve" smooth="yes"/>
      <point x="713" y="598"/>
      <point x="710" y="617"/>
      <point x="696" y="627" type="curve" smooth="yes"/>
      <point x="415" y="825" type="line" smooth="yes"/>
      <point x="407" y="830"/>
      <point x="394" y="831"/>
      <point x="385" y="827" type="curve" smooth="yes"/>
      <point x="70" y="684" type="line" smooth="yes"/>
      <point x="50" y="675"/>
      <point x="45" y="653"/>
      <point x="60" y="637" type="curve" smooth="yes"/>
      <point x="279" y="402" type="line"/>
      <point x="59" y="169" type="line" smooth="yes"/>
      <point x="54" y="164"/>
      <point x="51" y="155"/>
      <point x="51" y="149" type="curve" smooth="yes"/>
      <point x="50" y="0" type="line" smooth="yes"/>
      <point x="50" y="-16"/>
      <point x="64" y="-30"/>
      <point x="80" y="-30" type="curve" smooth="yes"/>
      <point x="96" y="-30"/>
      <point x="110" y="-16"/>
    </contour>
  </outline>
</glyph>
<glyph name="G" format="1">
  <advance width="760"/>
  <unicode hex="0047"/>
  <outline>
    <contour>
      <point x="574" y="-14" type="line" smooth="yes"/>
      <point x="586" y="-14"/>
      <point x="598" y="-5"/>
      <point x="602" y="6" type="curve" smooth="yes"/>
      <point x="709" y="335" type="line" smooth="yes"/>
      <point x="714" y="351"/>
      <point x="705" y="368"/>
      <point x="688" y="373" type="curve" smooth="yes"/>
      <point x="369" y="459" type="line"/>
      <point x="308" y="615" type="line" smooth="yes"/>
      <point x="302" y="630"/>
      <point x="284" y="638"/>
      <point x="269" y="632" type="curve" smooth="yes"/>
      <point x="254" y="626"/>
      <point x="246" y="608"/>
      <point x="252" y="593" type="curve" smooth="yes"/>
      <point x="319" y="423" type="line" smooth="yes"/>
      <point x="322" y="416"/>
      <point x="331" y="408"/>
      <point x="339" y="405" type="curve" smooth="yes"/>
      <point x="642" y="323" type="line"/>
      <point x="551" y="45" type="line"/>
      <point x="250" y="38" type="line"/>
      <point x="110" y="321" type="line"/>
      <point x="112" y="643" type="line"/>
      <point x="395" y="770" type="line"/>
      <point x="663" y="580" type="line" smooth="yes"/>
      <point x="676" y="570"/>
      <point x="695" y="573"/>
      <point x="704" y="587" type="curve" smooth="yes"/>
      <point x="714" y="600"/>
      <point x="711" y="619"/>
      <point x="697" y="628" type="curve" smooth="yes"/>
      <point x="415" y="828" type="line" smooth="yes"/>
      <point x="408" y="834"/>
      <point x="394" y="835"/>
      <point x="386" y="831" type="curve" smooth="yes"/>
      <point x="70" y="690" type="line" smooth="yes"/>
      <point x="60" y="686"/>
      <point x="52" y="674"/>
      <point x="52" y="663" type="curve" smooth="yes"/>
      <point x="50" y="314" type="line" smooth="yes"/>
      <point x="50" y="310"/>
      <point x="51" y="304"/>
      <point x="53" y="301" type="curve" smooth="yes"/>
      <point x="205" y="-6" type="line" smooth="yes"/>
      <point x="210" y="-16"/>
      <point x="222" y="-23"/>
      <point x="233" y="-23" type="curve" smooth="yes"/>
    </contour>
  </outline>
</glyph>
<glyph name="H" format="1">
  <advance width="760"/>
  <unicode hex="0048"/>
  <outline>
    <contour>
      <point x="680" y="-34" type="curve" smooth="yes"/>
      <point x="696" y="-34"/>
      <point x="710" y="-20"/>
      <point x="710" y="-4" type="curve" smooth="yes"/>
      <point x="710" y="696" type="line" smooth="yes"/>
      <point x="710" y="729"/>
      <point x="670" y="740"/>
      <point x="654" y="711" type="curve" smooth="yes"/>
      <point x="496" y="426" type="line"/>
      <point x="166" y="406" type="line" smooth="yes"/>
      <point x="154" y="405"/>
      <point x="141" y="395"/>
      <point x="138" y="383" type="curve" smooth="yes"/>
      <point x="111" y="276" type="line"/>
      <point x="110" y="386" type="line"/>
      <point x="110" y="736" type="line"/>
      <point x="110" y="796" type="line" smooth="yes"/>
      <point x="110" y="812"/>
      <point x="96" y="826"/>
      <point x="80" y="826" type="curve" smooth="yes"/>
      <point x="64" y="826"/>
      <point x="50" y="812"/>
      <point x="50" y="796" type="curve" smooth="yes"/>
      <point x="50" y="736" type="line"/>
      <point x="50" y="386" type="line"/>
      <point x="52" y="46" type="line" smooth="yes"/>
      <point x="52" y="9"/>
      <point x="102" y="3"/>
      <point x="111" y="38" type="curve" smooth="yes"/>
      <point x="191" y="347" type="line"/>
      <point x="516" y="367" type="line" smooth="yes"/>
      <point x="525" y="368"/>
      <point x="536" y="375"/>
      <point x="541" y="383" type="curve" smooth="yes"/>
      <point x="650" y="580" type="line"/>
      <point x="650" y="-4" type="line" smooth="yes"/>
      <point x="650" y="-20"/>
      <point x="664" y="-34"/>
    </contour>
  </outline>
</glyph>
<glyph name="J" format="1">
  <advance width="760"/>
  <unicode hex="004A"/>
  <outline>
    <contour>
      <point x="91" y="-29" type="curve" smooth="yes"/>
      <point x="384" y="87" type="line" smooth="yes"/>
      <point x="394" y="91"/>
      <point x="403" y="103"/>
      <point x="403" y="114" type="curve" smooth="yes"/>
      <point x="410" y="459" type="line" smooth="yes"/>
      <point x="410" y="460"/>
      <point x="410" y="462"/>
      <point x="410" y="464" type="curve" smooth="yes"/>
      <point x="365" y="769" type="line"/>
      <point x="680" y="769" type="line" smooth="yes"/>
      <point x="696" y="769"/>
      <point x="710" y="783"/>
      <point x="710" y="799" type="curve" smooth="yes"/>
      <point x="710" y="815"/>
      <point x="696" y="829"/>
      <point x="680" y="829" type="curve" smooth="yes"/>
      <point x="330" y="829" type="line" smooth="yes"/>
      <point x="311" y="829"/>
      <point x="298" y="813"/>
      <point x="300" y="795" type="curve" smooth="yes"/>
      <point x="350" y="457" type="line"/>
      <point x="343" y="135" type="line"/>
      <point x="69" y="27" type="line" smooth="yes"/>
      <point x="54" y="21"/>
      <point x="46" y="3"/>
      <point x="52" y="-12" type="curve" smooth="yes"/>
      <point x="58" y="-27"/>
      <point x="76" y="-35"/>
    </contour>
  </outline>
</glyph>
<glyph name="L" format="1">
  <advance width="760"/>
  <unicode hex="004C"/>
  <outline>
    <contour>
      <point x="420" y="-30" type="curve" smooth="yes"/>
      <point x="680" y="-30" type="line" smooth="yes"/>
      <point x="696" y="-30"/>
      <point x="710" y="-16"/>
      <point x="710" y="0" type="curve" smooth="yes"/>
      <point x="710" y="16"/>
      <point x="696" y="30"/>
      <point x="680" y="30" type="curve" smooth="yes"/>
      <point x="425" y="30" type="line"/>
      <point x="121" y="131" type="line"/>
      <point x="110" y="450" type="line"/>
      <point x="110" y="800" type="line" smooth="yes"/>
      <point x="110" y="816"/>
      <point x="96" y="830"/>
      <point x="80" y="830" type="curve" smooth="yes"/>
      <point x="64" y="830"/>
      <point x="50" y="816"/>
      <point x="50" y="800" type="curve" smooth="yes"/>
      <point x="50" y="450" type="line"/>
      <point x="62" y="108" type="line" smooth="yes"/>
      <point x="62" y="96"/>
      <point x="71" y="84"/>
      <point x="82" y="80" type="curve" smooth="yes"/>
      <point x="411" y="-28" type="line" smooth="yes"/>
      <point x="413" y="-29"/>
      <point x="417" y="-30"/>
    </contour>
  </outline>
</glyph>
<glyph name="Q" format="1">
  <advance width="761"/>
  <unicode hex="0051"/>
  <outline>
    <contour>
      <point x="466" y="29" type="line"/>
      <point x="295" y="29" type="line"/>
      <point x="110" y="289" type="line"/>
      <point x="110" y="602" type="line"/>
      <point x="379" y="764" type="line"/>
      <point x="651" y="610" type="line"/>
      <point x="651" y="289" type="line"/>
    </contour>
    <contour>
      <point x="471" y="-31" type="line" smooth="yes"/>
      <point x="473" y="-31"/>
      <point x="475" y="-31"/>
      <point x="476" y="-30" type="curve"/>
      <point x="487" y="-32"/>
      <point x="499" y="-28"/>
      <point x="505" y="-18" type="curve" smooth="yes"/>
      <point x="705" y="262" type="line" smooth="yes"/>
      <point x="709" y="266"/>
      <point x="711" y="274"/>
      <point x="711" y="279" type="curve" smooth="yes"/>
      <point x="711" y="627" type="line" smooth="yes"/>
      <point x="711" y="637"/>
      <point x="704" y="648"/>
      <point x="695" y="653" type="curve" smooth="yes"/>
      <point x="393" y="825" type="line" smooth="yes"/>
      <point x="385" y="830"/>
      <point x="371" y="830"/>
      <point x="363" y="825" type="curve" smooth="yes"/>
      <point x="65" y="645" type="line" smooth="yes"/>
      <point x="57" y="640"/>
      <point x="50" y="629"/>
      <point x="50" y="619" type="curve" smooth="yes"/>
      <point x="50" y="279" type="line" smooth="yes"/>
      <point x="50" y="274"/>
      <point x="53" y="266"/>
      <point x="56" y="262" type="curve" smooth="yes"/>
      <point x="256" y="-18" type="line" smooth="yes"/>
      <point x="261" y="-25"/>
      <point x="271" y="-31"/>
      <point x="280" y="-31" type="curve" smooth="yes"/>
    </contour>
  </outline>
</glyph>
<glyph name="S" format="1">
  <advance width="761"/>
  <unicode hex="0053"/>
  <outline>
    <contour>
      <point x="546" y="-21" type="line" smooth="yes"/>
      <point x="558" y="-21"/>
      <point x="571" y="-11"/>
      <point x="575" y="0" type="curve" smooth="yes"/>
      <point x="679" y="330" type="line" smooth="yes"/>
      <point x="685" y="348"/>
      <point x="674" y="365"/>
      <point x="656" y="369" type="curve" smooth="yes"/>
      <point x="326" y="432" type="line"/>
      <point x="132" y="652" type="line"/>
      <point x="395" y="770" type="line"/>
      <point x="664" y="580" type="line" smooth="yes"/>
      <point x="677" y="570"/>
      <point x="696" y="573"/>
      <point x="705" y="587" type="curve" smooth="yes"/>
      <point x="715" y="600"/>
      <point x="712" y="619"/>
      <point x="698" y="628" type="curve" smooth="yes"/>
      <point x="416" y="828" type="line" smooth="yes"/>
      <point x="408" y="834"/>
      <point x="395" y="835"/>
      <point x="386" y="831" type="curve" smooth="yes"/>
      <point x="70" y="690" type="line" smooth="yes"/>
      <point x="50" y="681"/>
      <point x="45" y="659"/>
      <point x="60" y="643" type="curve" smooth="yes"/>
      <point x="288" y="384" type="line" smooth="yes"/>
      <point x="291" y="380"/>
      <point x="299" y="376"/>
      <point x="305" y="375" type="curve" smooth="yes"/>
      <point x="612" y="316" type="line"/>
      <point x="524" y="40" type="line"/>
      <point x="214" y="41" type="line"/>
      <point x="106" y="220" type="line" smooth="yes"/>
      <point x="97" y="233"/>
      <point x="78" y="238"/>
      <point x="64" y="230" type="curve" smooth="yes"/>
      <point x="51" y="221"/>
      <point x="46" y="202"/>
      <point x="54" y="188" type="curve" smooth="yes"/>
      <point x="171" y="-5" type="line" smooth="yes"/>
      <point x="176" y="-13"/>
      <point x="187" y="-19"/>
      <point x="196" y="-19" type="curve" smooth="yes"/>
    </contour>
  </outline>
</glyph>
<glyph name="T" format="1">
  <advance width="472"/>
  <unicode hex="0054"/>
  <outline>
    <contour>
      <point x="380" y="-30" type="curve" smooth="yes"/>
      <point x="396" y="-30"/>
      <point x="410" y="-16"/>
      <point x="410" y="0" type="curve" smooth="yes"/>
      <point x="410" y="350" type="line"/>
      <point x="422" y="696" type="line" smooth="yes"/>
      <point x="423" y="708"/>
      <point x="414" y="721"/>
      <point x="402" y="725" type="curve" smooth="yes"/>
      <point x="89" y="828" type="line" smooth="yes"/>
      <point x="74" y="834"/>
      <point x="57" y="825"/>
      <point x="52" y="809" type="curve" smooth="yes"/>
      <point x="46" y="794"/>
      <point x="55" y="777"/>
      <point x="71" y="772" type="curve" smooth="yes"/>
      <point x="362" y="675" type="line"/>
      <point x="350" y="350" type="line"/>
      <point x="350" y="0" type="line" smooth="yes"/>
      <point x="350" y="-16"/>
      <point x="364" y="-30"/>
    </contour>
  </outline>
</glyph>
<glyph name="U" format="1">
  <advance width="759"/>
  <unicode hex="0055"/>
  <outline>
    <contour>
      <point x="351" y="-30" type="curve" smooth="yes"/>
      <point x="677" y="71" type="line" smooth="yes"/>
      <point x="688" y="74"/>
      <point x="698" y="87"/>
      <point x="698" y="99" type="curve" smooth="yes"/>
      <point x="709" y="449" type="line"/>
      <point x="709" y="799" type="line" smooth="yes"/>
      <point x="709" y="815"/>
      <point x="695" y="829"/>
      <point x="679" y="829" type="curve" smooth="yes"/>
      <point x="663" y="829"/>
      <point x="649" y="815"/>
      <point x="649" y="799" type="curve" smooth="yes"/>
      <point x="649" y="449" type="line"/>
      <point x="639" y="122" type="line"/>
      <point x="349" y="33" type="line"/>
      <point x="110" y="243" type="line"/>
      <point x="110" y="799" type="line" smooth="yes"/>
      <point x="110" y="815"/>
      <point x="96" y="829"/>
      <point x="80" y="829" type="curve" smooth="yes"/>
      <point x="64" y="829"/>
      <point x="50" y="815"/>
      <point x="50" y="799" type="curve" smooth="yes"/>
      <point x="50" y="229" type="line" smooth="yes"/>
      <point x="50" y="222"/>
      <point x="55" y="211"/>
      <point x="60" y="206" type="curve" smooth="yes"/>
      <point x="322" y="-24" type="line" smooth="yes"/>
      <point x="329" y="-30"/>
      <point x="342" y="-32"/>
    </contour>
  </outline>
</glyph>
<glyph name="V" format="1">
  <advance width="760"/>
  <unicode hex="0056"/>
  <outline>
    <contour>
      <point x="574" y="-6" type="curve" smooth="yes"/>
      <point x="708" y="308" type="line" smooth="yes"/>
      <point x="709" y="311"/>
      <point x="710" y="317"/>
      <point x="710" y="320" type="curve" smooth="yes"/>
      <point x="710" y="800" type="line" smooth="yes"/>
      <point x="710" y="816"/>
      <point x="696" y="830"/>
      <point x="680" y="830" type="curve" smooth="yes"/>
      <point x="664" y="830"/>
      <point x="650" y="816"/>
      <point x="650" y="800" type="curve" smooth="yes"/>
      <point x="650" y="326" type="line"/>
      <point x="531" y="46" type="line"/>
      <point x="260" y="171" type="line"/>
      <point x="110" y="457" type="line"/>
      <point x="110" y="800" type="line" smooth="yes"/>
      <point x="110" y="816"/>
      <point x="96" y="830"/>
      <point x="80" y="830" type="curve" smooth="yes"/>
      <point x="64" y="830"/>
      <point x="50" y="816"/>
      <point x="50" y="800" type="curve" smooth="yes"/>
      <point x="50" y="450" type="line" smooth="yes"/>
      <point x="50" y="446"/>
      <point x="52" y="440"/>
      <point x="53" y="436" type="curve" smooth="yes"/>
      <point x="211" y="135" type="line" smooth="yes"/>
      <point x="214" y="130"/>
      <point x="220" y="124"/>
      <point x="225" y="121" type="curve" smooth="yes"/>
      <point x="534" y="-22" type="line" smooth="yes"/>
      <point x="550" y="-29"/>
      <point x="568" y="-22"/>
    </contour>
  </outline>
</glyph>
<glyph name="W" format="1">
  <advance width="760"/>
  <unicode hex="0057"/>
  <outline>
    <contour>
      <point x="609" y="-9" type="curve" smooth="yes"/>
      <point x="709" y="321" type="line" smooth="yes"/>
      <point x="709" y="324"/>
      <point x="710" y="328"/>
      <point x="710" y="330" type="curve" smooth="yes"/>
      <point x="710" y="800" type="line" smooth="yes"/>
      <point x="710" y="816"/>
      <point x="696" y="830"/>
      <point x="680" y="830" type="curve" smooth="yes"/>
      <point x="664" y="830"/>
      <point x="650" y="816"/>
      <point x="650" y="800" type="curve" smooth="yes"/>
      <point x="650" y="334" type="line"/>
      <point x="569" y="66" type="line"/>
      <point x="400" y="298" type="line" smooth="yes"/>
      <point x="391" y="310"/>
      <point x="373" y="314"/>
      <point x="360" y="306" type="curve" smooth="yes"/>
      <point x="110" y="153" type="line"/>
      <point x="110" y="800" type="line" smooth="yes"/>
      <point x="110" y="816"/>
      <point x="96" y="830"/>
      <point x="80" y="830" type="curve" smooth="yes"/>
      <point x="64" y="830"/>
      <point x="50" y="816"/>
      <point x="50" y="800" type="curve" smooth="yes"/>
      <point x="50" y="100" type="line"/>
      <point x="50" y="75"/>
      <point x="74" y="61"/>
      <point x="96" y="74" type="curve" smooth="yes"/>
      <point x="368" y="240" type="line"/>
      <point x="556" y="-18" type="line" smooth="yes"/>
      <point x="572" y="-39"/>
      <point x="601" y="-35"/>
    </contour>
  </outline>
</glyph>
<glyph name="Z" format="1">
  <advance width="760"/>
  <unicode hex="005A"/>
  <outline>
    <contour>
      <point x="400" y="-30" type="curve" smooth="yes"/>
      <point x="680" y="-30" type="line" smooth="yes"/>
      <point x="696" y="-30"/>
      <point x="710" y="-16"/>
      <point x="710" y="0" type="curve" smooth="yes"/>
      <point x="710" y="16"/>
      <point x="696" y="30"/>
      <point x="680" y="30" type="curve" smooth="yes"/>
      <point x="414" y="30" type="line"/>
      <point x="224" y="260" type="line"/>
      <point x="480" y="431" type="line" smooth="yes"/>
      <point x="488" y="436"/>
      <point x="494" y="449"/>
      <point x="493" y="458" type="curve" smooth="yes"/>
      <point x="460" y="803" type="line" smooth="yes"/>
      <point x="458" y="818"/>
      <point x="445" y="830"/>
      <point x="430" y="830" type="curve" smooth="yes"/>
      <point x="80" y="830" type="line" smooth="yes"/>
      <point x="64" y="830"/>
      <point x="50" y="816"/>
      <point x="50" y="800" type="curve" smooth="yes"/>
      <point x="50" y="784"/>
      <point x="64" y="770"/>
      <point x="80" y="770" type="curve" smooth="yes"/>
      <point x="403" y="770" type="line"/>
      <point x="432" y="471" type="line"/>
      <point x="163" y="292" type="line" smooth="yes"/>
      <point x="148" y="282"/>
      <point x="145" y="262"/>
      <point x="157" y="248" type="curve" smooth="yes"/>
      <point x="377" y="-19" type="line" smooth="yes"/>
      <point x="382" y="-25"/>
      <point x="392" y="-30"/>
    </contour>
  </outline>
</glyph>
<glyph name="bracketleft" format="1">
  <advance width="460"/>
  <unicode hex="005B"/>
  <outline>
    <contour>
      <point x="290" y="-30" type="curve" smooth="yes"/>
      <point x="380" y="-30" type="line" smooth="yes"/>
      <point x="396" y="-30"/>
      <point x="410" y="-16"/>
      <point x="410" y="0" type="curve" smooth="yes"/>
      <point x="410" y="16"/>
      <point x="396" y="30"/>
      <point x="380" y="30" type="curve" smooth="yes"/>
      <point x="305" y="30" type="line"/>
      <point x="110" y="290" type="line"/>
      <point x="110" y="603" type="line"/>
      <point x="395" y="774" type="line" smooth="yes"/>
      <point x="409" y="783"/>
      <point x="414" y="802"/>
      <point x="406" y="815" type="curve" smooth="yes"/>
      <point x="397" y="829"/>
      <point x="378" y="834"/>
      <point x="365" y="826" type="curve" smooth="yes"/>
      <point x="65" y="646" type="line" smooth="yes"/>
      <point x="57" y="641"/>
      <point x="50" y="629"/>
      <point x="50" y="620" type="curve"/>
      <point x="50" y="280" type="line" smooth="yes"/>
      <point x="50" y="274"/>
      <point x="53" y="266"/>
      <point x="56" y="262" type="curve" smooth="yes"/>
      <point x="266" y="-18" type="line" smooth="yes"/>
      <point x="271" y="-25"/>
      <point x="282" y="-30"/>
    </contour>
  </outline>
</glyph>
<glyph name="bracketright" format="1">
  <advance width="460"/>
  <unicode hex="005D"/>
  <outline>
    <contour>
      <point x="80" y="-31" type="curve" smooth="yes"/>
      <point x="170" y="-31" type="line" smooth="yes"/>
      <point x="178" y="-31"/>
      <point x="189" y="-26"/>
      <point x="194" y="-19" type="curve" smooth="yes"/>
      <point x="404" y="261" type="line" smooth="yes"/>
      <point x="407" y="265"/>
      <point x="410" y="273"/>
      <point x="410" y="279" type="curve" smooth="yes"/>
      <point x="410" y="619" type="line" smooth="yes"/>
      <point x="410" y="628"/>
      <point x="403" y="640"/>
      <point x="395" y="645" type="curve" smooth="yes"/>
      <point x="95" y="825" type="line" smooth="yes"/>
      <point x="82" y="833"/>
      <point x="63" y="828"/>
      <point x="54" y="814" type="curve" smooth="yes"/>
      <point x="46" y="801"/>
      <point x="51" y="782"/>
      <point x="65" y="773" type="curve" smooth="yes"/>
      <point x="350" y="602" type="line"/>
      <point x="350" y="289" type="line"/>
      <point x="155" y="29" type="line"/>
      <point x="80" y="29" type="line" smooth="yes"/>
      <point x="64" y="29"/>
      <point x="50" y="15"/>
      <point x="50" y="-1" type="curve" smooth="yes"/>
      <point x="50" y="-17"/>
      <point x="64" y="-31"/>
    </contour>
  </outline>
</glyph>
<glyph name="c" format="1">
  <advance width="760"/>
  <unicode hex="0063"/>
  <outline>
    <contour>
      <point x="589" y="-17" type="line" smooth="yes"/>
      <point x="598" y="-17"/>
      <point x="610" y="-10"/>
      <point x="614" y="-1" type="curve" smooth="yes"/>
      <point x="707" y="185" type="line" smooth="yes"/>
      <point x="714" y="199"/>
      <point x="708" y="218"/>
      <point x="693" y="225" type="curve" smooth="yes"/>
      <point x="679" y="232"/>
      <point x="660" y="226"/>
      <point x="653" y="211" type="curve" smooth="yes"/>
      <point x="568" y="42" type="line"/>
      <point x="262" y="29" type="line"/>
      <point x="110" y="312" type="line"/>
      <point x="111" y="633" type="line"/>
      <point x="395" y="764" type="line"/>
      <point x="663" y="574" type="line" smooth="yes"/>
      <point x="676" y="564"/>
      <point x="695" y="567"/>
      <point x="704" y="581" type="curve" smooth="yes"/>
      <point x="714" y="594"/>
      <point x="711" y="613"/>
      <point x="697" y="622" type="curve" smooth="yes"/>
      <point x="415" y="822" type="line" smooth="yes"/>
      <point x="408" y="828"/>
      <point x="394" y="829"/>
      <point x="385" y="825" type="curve" smooth="yes"/>
      <point x="69" y="680" type="line" smooth="yes"/>
      <point x="59" y="675"/>
      <point x="51" y="663"/>
      <point x="51" y="652" type="curve" smooth="yes"/>
      <point x="50" y="305" type="line" smooth="yes"/>
      <point x="50" y="301"/>
      <point x="52" y="294"/>
      <point x="54" y="291" type="curve" smooth="yes"/>
      <point x="218" y="-16" type="line" smooth="yes"/>
      <point x="223" y="-25"/>
      <point x="236" y="-32"/>
      <point x="246" y="-32" type="curve" smooth="yes"/>
    </contour>
  </outline>
</glyph>
<glyph name="d" format="1">
  <advance width="760"/>
  <unicode hex="0064"/>
  <outline>
    <contour>
      <point x="221" y="-31" type="curve" smooth="yes"/>
      <point x="564" y="-24" type="line" smooth="yes"/>
      <point x="575" y="-24"/>
      <point x="588" y="-15"/>
      <point x="592" y="-4" type="curve" smooth="yes"/>
      <point x="708" y="319" type="line" smooth="yes"/>
      <point x="709" y="322"/>
      <point x="710" y="326"/>
      <point x="710" y="329" type="curve" smooth="yes"/>
      <point x="710" y="589" type="line" smooth="yes"/>
      <point x="710" y="591"/>
      <point x="710" y="593"/>
      <point x="709" y="594" type="curve"/>
      <point x="711" y="605"/>
      <point x="707" y="617"/>
      <point x="697" y="623" type="curve" smooth="yes"/>
      <point x="417" y="823" type="line" smooth="yes"/>
      <point x="410" y="829"/>
      <point x="396" y="830"/>
      <point x="388" y="826" type="curve" smooth="yes"/>
      <point x="68" y="686" type="line" smooth="yes"/>
      <point x="58" y="682"/>
      <point x="50" y="670"/>
      <point x="50" y="659" type="curve"/>
      <point x="50" y="319" type="line" smooth="yes"/>
      <point x="50" y="316"/>
      <point x="51" y="310"/>
      <point x="53" y="307" type="curve" smooth="yes"/>
      <point x="193" y="-13" type="line" smooth="yes"/>
      <point x="197" y="-23"/>
      <point x="210" y="-31"/>
    </contour>
    <contour>
      <point x="239" y="29" type="line"/>
      <point x="110" y="325" type="line"/>
      <point x="110" y="639" type="line"/>
      <point x="396" y="765" type="line"/>
      <point x="650" y="584" type="line"/>
      <point x="650" y="334" type="line"/>
      <point x="542" y="36" type="line"/>
    </contour>
  </outline>
</glyph>
<glyph name="e" format="1">
  <advance width="759"/>
  <unicode hex="0065"/>
  <outline>
    <contour>
      <point x="479" y="-30" type="line" smooth="yes"/>
      <point x="482" y="-30" type="line"/>
      <point x="490" y="-29"/>
      <point x="497" y="-27"/>
      <point x="502" y="-21" type="curve" smooth="yes"/>
      <point x="700" y="175" type="line" smooth="yes"/>
      <point x="712" y="186"/>
      <point x="712" y="206"/>
      <point x="700" y="217" type="curve" smooth="yes"/>
      <point x="689" y="229"/>
      <point x="669" y="229"/>
      <point x="658" y="217" type="curve" smooth="yes"/>
      <point x="469" y="30" type="line"/>
      <point x="406" y="30" type="line"/>
      <point x="134" y="145" type="line"/>
      <point x="331" y="382" type="line" smooth="yes"/>
      <point x="340" y="393"/>
      <point x="339" y="411"/>
      <point x="330" y="421" type="curve" smooth="yes"/>
      <point x="131" y="647" type="line"/>
      <point x="393" y="766" type="line"/>
      <point x="661" y="577" type="line" smooth="yes"/>
      <point x="674" y="568"/>
      <point x="693" y="571"/>
      <point x="703" y="585" type="curve" smooth="yes"/>
      <point x="712" y="598"/>
      <point x="709" y="617"/>
      <point x="695" y="627" type="curve" smooth="yes"/>
      <point x="414" y="825" type="line" smooth="yes"/>
      <point x="406" y="830"/>
      <point x="393" y="831"/>
      <point x="384" y="827" type="curve" smooth="yes"/>
      <point x="69" y="684" type="line" smooth="yes"/>
      <point x="49" y="676"/>
      <point x="44" y="653"/>
      <point x="59" y="637" type="curve" smooth="yes"/>
      <point x="268" y="401" type="line"/>
      <point x="62" y="152" type="line" smooth="yes"/>
      <point x="49" y="136"/>
      <point x="54" y="114"/>
      <point x="74" y="105" type="curve" smooth="yes"/>
      <point x="389" y="-28" type="line" smooth="yes"/>
      <point x="392" y="-29"/>
      <point x="397" y="-30"/>
      <point x="400" y="-30" type="curve" smooth="yes"/>
    </contour>
  </outline>
</glyph>
<glyph name="f" format="1">
  <advance width="759"/>
  <unicode hex="0066"/>
  <outline>
    <contour>
      <point x="110" y="2" type="curve" smooth="yes"/>
      <point x="131" y="314" type="line" smooth="yes"/>
      <point x="131" y="315"/>
      <point x="131" y="317"/>
      <point x="131" y="318" type="curve" smooth="yes"/>
      <point x="113" y="642" type="line"/>
      <point x="394" y="770" type="line"/>
      <point x="662" y="581" type="line" smooth="yes"/>
      <point x="675" y="572"/>
      <point x="694" y="575"/>
      <point x="704" y="589" type="curve" smooth="yes"/>
      <point x="713" y="602"/>
      <point x="710" y="621"/>
      <point x="696" y="631" type="curve" smooth="yes"/>
      <point x="415" y="829" type="line" smooth="yes"/>
      <point x="407" y="834"/>
      <point x="394" y="835"/>
      <point x="385" y="831" type="curve" smooth="yes"/>
      <point x="70" y="688" type="line" smooth="yes"/>
      <point x="59" y="684"/>
      <point x="52" y="671"/>
      <point x="52" y="659" type="curve" smooth="yes"/>
      <point x="71" y="316" type="line"/>
      <point x="50" y="6" type="line" smooth="yes"/>
      <point x="49" y="-10"/>
      <point x="62" y="-25"/>
      <point x="78" y="-26" type="curve" smooth="yes"/>
      <point x="94" y="-27"/>
      <point x="109" y="-14"/>
    </contour>
    <contour>
      <point x="250" y="404" type="curve" smooth="yes"/>
      <point x="250" y="388"/>
      <point x="264" y="374"/>
      <point x="280" y="374" type="curve" smooth="yes"/>
      <point x="480" y="374" type="line" smooth="yes"/>
      <point x="496" y="374"/>
      <point x="510" y="388"/>
      <point x="510" y="404" type="curve" smooth="yes"/>
      <point x="510" y="420"/>
      <point x="496" y="434"/>
      <point x="480" y="434" type="curve" smooth="yes"/>
      <point x="280" y="434" type="line" smooth="yes"/>
      <point x="264" y="434"/>
      <point x="250" y="420"/>
    </contour>
  </outline>
</glyph>
<glyph name="k" format="1">
  <advance width="760"/>
  <unicode hex="006B"/>
  <outline>
    <contour>
      <point x="683" y="-26" type="curve" smooth="yes"/>
      <point x="699" y="-24"/>
      <point x="712" y="-9"/>
      <point x="710" y="7" type="curve" smooth="yes"/>
      <point x="674" y="351" type="line" smooth="yes"/>
      <point x="672" y="363"/>
      <point x="661" y="375"/>
      <point x="649" y="377" type="curve" smooth="yes"/>
      <point x="514" y="399" type="line"/>
      <point x="704" y="667" type="line" smooth="yes"/>
      <point x="707" y="671"/>
      <point x="709" y="679"/>
      <point x="709" y="684" type="curve" smooth="yes"/>
      <point x="710" y="804" type="line" smooth="yes"/>
      <point x="710" y="820"/>
      <point x="696" y="834"/>
      <point x="680" y="834" type="curve" smooth="yes"/>
      <point x="664" y="834"/>
      <point x="650" y="820"/>
      <point x="650" y="804" type="curve" smooth="yes"/>
      <point x="649" y="694" type="line"/>
      <point x="456" y="421" type="line" smooth="yes"/>
      <point x="453" y="418"/>
      <point x="452" y="414"/>
      <point x="451" y="410" type="curve"/>
      <point x="305" y="434" type="line" smooth="yes"/>
      <point x="295" y="435"/>
      <point x="283" y="430"/>
      <point x="276" y="423" type="curve" smooth="yes"/>
      <point x="114" y="218" type="line"/>
      <point x="110" y="475" type="line"/>
      <point x="110" y="804" type="line" smooth="yes"/>
      <point x="110" y="820"/>
      <point x="96" y="834"/>
      <point x="80" y="834" type="curve" smooth="yes"/>
      <point x="64" y="834"/>
      <point x="50" y="820"/>
      <point x="50" y="804" type="curve" smooth="yes"/>
      <point x="50" y="473" type="line"/>
      <point x="56" y="133" type="line" smooth="yes"/>
      <point x="56" y="103"/>
      <point x="90" y="91"/>
      <point x="109" y="115" type="curve" smooth="yes"/>
      <point x="313" y="372" type="line"/>
      <point x="616" y="322" type="line"/>
      <point x="650" y="1" type="line" smooth="yes"/>
      <point x="652" y="-15"/>
      <point x="667" y="-28"/>
    </contour>
  </outline>
</glyph>
<glyph name="m" format="1">
  <advance width="760"/>
  <unicode hex="006D"/>
  <outline>
    <contour>
      <point x="680" y="-31" type="curve" smooth="yes"/>
      <point x="696" y="-31"/>
      <point x="710" y="-17"/>
      <point x="710" y="-1" type="curve" smooth="yes"/>
      <point x="710" y="699" type="line" smooth="yes"/>
      <point x="710" y="724"/>
      <point x="686" y="738"/>
      <point x="664" y="725" type="curve" smooth="yes"/>
      <point x="393" y="559" type="line"/>
      <point x="204" y="817" type="line" smooth="yes"/>
      <point x="188" y="838"/>
      <point x="159" y="833"/>
      <point x="151" y="808" type="curve" smooth="yes"/>
      <point x="51" y="478" type="line" smooth="yes"/>
      <point x="51" y="475"/>
      <point x="50" y="471"/>
      <point x="50" y="469" type="curve" smooth="yes"/>
      <point x="50" y="-1" type="line" smooth="yes"/>
      <point x="50" y="-17"/>
      <point x="64" y="-31"/>
      <point x="80" y="-31" type="curve" smooth="yes"/>
      <point x="96" y="-31"/>
      <point x="110" y="-17"/>
      <point x="110" y="-1" type="curve" smooth="yes"/>
      <point x="110" y="465" type="line"/>
      <point x="191" y="733" type="line"/>
      <point x="361" y="501" type="line" smooth="yes"/>
      <point x="370" y="489"/>
      <point x="388" y="485"/>
      <point x="401" y="493" type="curve" smooth="yes"/>
      <point x="650" y="646" type="line"/>
      <point x="650" y="-1" type="line" smooth="yes"/>
      <point x="650" y="-17"/>
      <point x="664" y="-31"/>
    </contour>
  </outline>
</glyph>
<glyph name="n" format="1">
  <advance width="760"/>
  <unicode hex="006E"/>
  <outline>
    <contour>
      <point x="110" y="-1" type="curve" smooth="yes"/>
      <point x="110" y="109" type="line"/>
      <point x="110" y="458" type="line"/>
      <point x="118" y="746" type="line"/>
      <point x="350" y="600" type="line"/>
      <point x="350" y="279" type="line" smooth="yes"/>
      <point x="350" y="270"/>
      <point x="357" y="258"/>
      <point x="365" y="253" type="curve" smooth="yes"/>
      <point x="665" y="73" type="line" smooth="yes"/>
      <point x="686" y="60"/>
      <point x="710" y="74"/>
      <point x="710" y="99" type="curve" smooth="yes"/>
      <point x="710" y="799" type="line" smooth="yes"/>
      <point x="710" y="815"/>
      <point x="696" y="829"/>
      <point x="680" y="829" type="curve" smooth="yes"/>
      <point x="664" y="829"/>
      <point x="650" y="815"/>
      <point x="650" y="799" type="curve" smooth="yes"/>
      <point x="650" y="152" type="line"/>
      <point x="410" y="296" type="line"/>
      <point x="410" y="617" type="line" smooth="yes"/>
      <point x="410" y="626"/>
      <point x="403" y="637"/>
      <point x="396" y="642" type="curve" smooth="yes"/>
      <point x="106" y="824" type="line" smooth="yes"/>
      <point x="85" y="838"/>
      <point x="61" y="825"/>
      <point x="60" y="800" type="curve" smooth="yes"/>
      <point x="50" y="460" type="line"/>
      <point x="50" y="109" type="line"/>
      <point x="50" y="-1" type="line" smooth="yes"/>
      <point x="50" y="-17"/>
      <point x="64" y="-31"/>
      <point x="80" y="-31" type="curve" smooth="yes"/>
      <point x="96" y="-31"/>
      <point x="110" y="-17"/>
    </contour>
  </outline>
</glyph>
<glyph name="o" format="1">
  <advance width="761"/>
  <unicode hex="006F"/>
  <outline>
    <contour>
      <point x="468" y="29" type="line"/>
      <point x="297" y="29" type="line"/>
      <point x="110" y="289" type="line"/>
      <point x="110" y="602" type="line"/>
      <point x="379" y="764" type="line"/>
      <point x="651" y="610" type="line"/>
      <point x="651" y="288" type="line"/>
    </contour>
    <contour>
      <point x="474" y="-31" type="line" smooth="yes"/>
      <point x="476" y="-31"/>
      <point x="478" y="-31"/>
      <point x="479" y="-30" type="curve"/>
      <point x="490" y="-32"/>
      <point x="502" y="-28"/>
      <point x="509" y="-18" type="curve" smooth="yes"/>
      <point x="706" y="262" type="line" smooth="yes"/>
      <point x="709" y="266"/>
      <point x="711" y="274"/>
      <point x="711" y="279" type="curve" smooth="yes"/>
      <point x="711" y="627" type="line" smooth="yes"/>
      <point x="711" y="637"/>
      <point x="704" y="648"/>
      <point x="695" y="653" type="curve" smooth="yes"/>
      <point x="393" y="825" type="line" smooth="yes"/>
      <point x="385" y="830"/>
      <point x="371" y="830"/>
      <point x="363" y="825" type="curve" smooth="yes"/>
      <point x="65" y="645" type="line" smooth="yes"/>
      <point x="57" y="640"/>
      <point x="50" y="629"/>
      <point x="50" y="619" type="curve" smooth="yes"/>
      <point x="50" y="279" type="line" smooth="yes"/>
      <point x="50" y="274"/>
      <point x="53" y="266"/>
      <point x="56" y="261" type="curve" smooth="yes"/>
      <point x="258" y="-19" type="line" smooth="yes"/>
      <point x="263" y="-25"/>
      <point x="274" y="-31"/>
      <point x="282" y="-31" type="curve" smooth="yes"/>
    </contour>
  </outline>
</glyph>
<glyph name="p" format="1">
  <advance width="759"/>
  <unicode hex="0070"/>
  <outline>
    <contour>
      <point x="80" y="-27" type="curve" smooth="yes"/>
      <point x="96" y="-27"/>
      <point x="110" y="-13"/>
      <point x="110" y="3" type="curve" smooth="yes"/>
      <point x="110" y="84" type="line"/>
      <point x="376" y="281" type="line"/>
      <point x="691" y="420" type="line" smooth="yes"/>
      <point x="704" y="426"/>
      <point x="711" y="442"/>
      <point x="708" y="455" type="curve" smooth="yes"/>
      <point x="622" y="790" type="line" smooth="yes"/>
      <point x="619" y="802"/>
      <point x="607" y="812"/>
      <point x="595" y="813" type="curve" smooth="yes"/>
      <point x="262" y="833" type="line" smooth="yes"/>
      <point x="252" y="833"/>
      <point x="240" y="827"/>
      <point x="234" y="818" type="curve" smooth="yes"/>
      <point x="54" y="518" type="line" smooth="yes"/>
      <point x="52" y="515"/>
      <point x="50" y="508"/>
      <point x="50" y="503" type="curve" smooth="yes"/>
      <point x="50" y="3" type="line" smooth="yes"/>
      <point x="50" y="-13"/>
      <point x="64" y="-27"/>
    </contour>
    <contour>
      <point x="348" y="334" type="line" smooth="yes"/>
      <point x="347" y="334"/>
      <point x="344" y="332"/>
      <point x="343" y="331" type="curve" smooth="yes"/>
      <point x="110" y="159" type="line"/>
      <point x="110" y="495" type="line"/>
      <point x="276" y="772" type="line"/>
      <point x="570" y="754" type="line"/>
      <point x="643" y="465" type="line"/>
    </contour>
  </outline>
</glyph>
<glyph name="r" format="1">
  <advance width="761"/>
  <unicode hex="0072"/>
  <outline>
    <contour>
      <point x="80" y="-34" type="curve" smooth="yes"/>
      <point x="96" y="-34"/>
      <point x="110" y="-20"/>
      <point x="110" y="-4" type="curve" smooth="yes"/>
      <point x="110" y="345" type="line"/>
      <point x="118" y="665" type="line"/>
      <point x="412" y="762" type="line"/>
      <point x="640" y="571" type="line"/>
      <point x="466" y="326" type="line"/>
      <point x="280" y="326" type="line"/>
      <point x="280" y="326" type="line" smooth="yes"/>
      <point x="160" y="326" type="line" smooth="yes"/>
      <point x="120" y="326"/>
      <point x="120" y="266"/>
      <point x="160" y="266" type="curve" smooth="yes"/>
      <point x="485" y="266" type="line"/>
      <point x="655" y="-19" type="line" smooth="yes"/>
      <point x="664" y="-33"/>
      <point x="682" y="-38"/>
      <point x="696" y="-30" type="curve" smooth="yes"/>
      <point x="710" y="-21"/>
      <point x="715" y="-3"/>
      <point x="707" y="11" type="curve" smooth="yes"/>
      <point x="528" y="310" type="line"/>
      <point x="705" y="559" type="line" smooth="yes"/>
      <point x="714" y="571"/>
      <point x="712" y="589"/>
      <point x="700" y="599" type="curve" smooth="yes"/>
      <point x="438" y="819" type="line" smooth="yes"/>
      <point x="431" y="825"/>
      <point x="418" y="827"/>
      <point x="409" y="824" type="curve" smooth="yes"/>
      <point x="79" y="716" type="line" smooth="yes"/>
      <point x="68" y="712"/>
      <point x="59" y="699"/>
      <point x="58" y="688" type="curve" smooth="yes"/>
      <point x="50" y="347" type="line"/>
      <point x="50" y="-4" type="line" smooth="yes"/>
      <point x="50" y="-20"/>
      <point x="64" y="-34"/>
    </contour>
  </outline>
</glyph>
<glyph name="x" format="1">
  <advance width="760"/>
  <unicode hex="0078"/>
  <outline>
    <contour>
      <point x="110" y="0" type="curve" smooth="yes"/>
      <point x="110" y="129" type="line"/>
      <point x="319" y="367" type="line"/>
      <point x="614" y="319" type="line"/>
      <point x="650" y="-3" type="line" smooth="yes"/>
      <point x="652" y="-19"/>
      <point x="667" y="-32"/>
      <point x="683" y="-30" type="curve" smooth="yes"/>
      <point x="699" y="-28"/>
      <point x="712" y="-13"/>
      <point x="710" y="3" type="curve" smooth="yes"/>
      <point x="671" y="348" type="line" smooth="yes"/>
      <point x="670" y="360"/>
      <point x="659" y="372"/>
      <point x="646" y="374" type="curve" smooth="yes"/>
      <point x="491" y="400" type="line"/>
      <point x="649" y="426" type="line" smooth="yes"/>
      <point x="662" y="428"/>
      <point x="673" y="440"/>
      <point x="674" y="452" type="curve" smooth="yes"/>
      <point x="710" y="797" type="line" smooth="yes"/>
      <point x="712" y="813"/>
      <point x="699" y="828"/>
      <point x="683" y="830" type="curve" smooth="yes"/>
      <point x="667" y="832"/>
      <point x="652" y="819"/>
      <point x="650" y="803" type="curve" smooth="yes"/>
      <point x="617" y="481" type="line"/>
      <point x="315" y="431" type="line"/>
      <point x="110" y="681" type="line"/>
      <point x="110" y="800" type="line" smooth="yes"/>
      <point x="110" y="816"/>
      <point x="96" y="830"/>
      <point x="80" y="830" type="curve" smooth="yes"/>
      <point x="64" y="830"/>
      <point x="50" y="816"/>
      <point x="50" y="800" type="curve" smooth="yes"/>
      <point x="50" y="670" type="line" smooth="yes"/>
      <point x="50" y="664"/>
      <point x="53" y="656"/>
      <point x="57" y="651" type="curve" smooth="yes"/>
      <point x="266" y="397" type="line"/>
      <point x="57" y="160" type="line" smooth="yes"/>
      <point x="53" y="155"/>
      <point x="50" y="146"/>
      <point x="50" y="140" type="curve"/>
      <point x="50" y="0" type="line" smooth="yes"/>
      <point x="50" y="-16"/>
      <point x="64" y="-30"/>
      <point x="80" y="-30" type="curve" smooth="yes"/>
      <point x="96" y="-30"/>
      <point x="110" y="-16"/>
    </contour>
  </outline>
</glyph>
<glyph name="y" format="1">
  <advance width="759"/>
  <unicode hex="0079"/>
  <outline>
    <contour>
      <point x="379" y="-30" type="line" smooth="yes"/>
      <point x="384" y="-30"/>
      <point x="390" y="-28"/>
      <point x="394" y="-26" type="curve" smooth="yes"/>
      <point x="693" y="140" type="line" smooth="yes"/>
      <point x="702" y="145"/>
      <point x="709" y="157"/>
      <point x="709" y="167" type="curve" smooth="yes"/>
      <point x="699" y="509" type="line" smooth="yes"/>
      <point x="699" y="535"/>
      <point x="672" y="548"/>
      <point x="651" y="532" type="curve" smooth="yes"/>
      <point x="389" y="333" type="line"/>
      <point x="111" y="473" type="line"/>
      <point x="110" y="798" type="line" smooth="yes"/>
      <point x="110" y="814"/>
      <point x="96" y="828"/>
      <point x="80" y="828" type="curve" smooth="yes"/>
      <point x="64" y="828"/>
      <point x="50" y="814"/>
      <point x="50" y="798" type="curve" smooth="yes"/>
      <point x="51" y="455" type="line" smooth="yes"/>
      <point x="51" y="444"/>
      <point x="59" y="432"/>
      <point x="68" y="428" type="curve" smooth="yes"/>
      <point x="379" y="271" type="line" smooth="yes"/>
      <point x="388" y="267"/>
      <point x="402" y="268"/>
      <point x="411" y="274" type="curve" smooth="yes"/>
      <point x="641" y="449" type="line"/>
      <point x="648" y="184" type="line"/>
      <point x="372" y="30" type="line"/>
      <point x="80" y="31" type="line" smooth="yes"/>
      <point x="64" y="31"/>
      <point x="50" y="17"/>
      <point x="50" y="1" type="curve" smooth="yes"/>
      <point x="50" y="-15"/>
      <point x="64" y="-29"/>
      <point x="80" y="-29" type="curve" smooth="yes"/>
    </contour>
  </outline>
</glyph>
<glyph name="braceleft" format="1">
  <advance width="465"/>
  <unicode hex="007B"/>
  <outline>
    <contour>
      <point x="295" y="-32" type="curve" smooth="yes"/>
      <point x="385" y="-32" type="line" smooth="yes"/>
      <point x="401" y="-32"/>
      <point x="415" y="-18"/>
      <point x="415" y="-2" type="curve" smooth="yes"/>
      <point x="415" y="14"/>
      <point x="401" y="28"/>
      <point x="385" y="28" type="curve" smooth="yes"/>
      <point x="310" y="28" type="line"/>
      <point x="110" y="283" type="line"/>
      <point x="115" y="601" type="line"/>
      <point x="400" y="772" type="line" smooth="yes"/>
      <point x="414" y="781"/>
      <point x="419" y="799"/>
      <point x="411" y="813" type="curve" smooth="yes"/>
      <point x="402" y="827"/>
      <point x="384" y="832"/>
      <point x="370" y="824" type="curve" smooth="yes"/>
      <point x="70" y="644" type="line" smooth="yes"/>
      <point x="62" y="640"/>
      <point x="55" y="628"/>
      <point x="55" y="619" type="curve" smooth="yes"/>
      <point x="50" y="274" type="line" smooth="yes"/>
      <point x="50" y="268"/>
      <point x="53" y="259"/>
      <point x="56" y="255" type="curve" smooth="yes"/>
      <point x="271" y="-20" type="line" smooth="yes"/>
      <point x="276" y="-27"/>
      <point x="287" y="-32"/>
    </contour>
  </outline>
</glyph>
<glyph name="braceright" format="1">
  <advance width="465"/>
  <unicode hex="007D"/>
  <outline>
    <contour>
      <point x="80" y="-31" type="curve" smooth="yes"/>
      <point x="170" y="-31" type="line" smooth="yes"/>
      <point x="178" y="-31"/>
      <point x="189" y="-26"/>
      <point x="194" y="-19" type="curve" smooth="yes"/>
      <point x="409" y="256" type="line" smooth="yes"/>
      <point x="412" y="260"/>
      <point x="415" y="269"/>
      <point x="415" y="275" type="curve" smooth="yes"/>
      <point x="410" y="620" type="line" smooth="yes"/>
      <point x="410" y="629"/>
      <point x="403" y="641"/>
      <point x="395" y="645" type="curve" smooth="yes"/>
      <point x="95" y="825" type="line" smooth="yes"/>
      <point x="81" y="833"/>
      <point x="63" y="828"/>
      <point x="54" y="814" type="curve" smooth="yes"/>
      <point x="46" y="800"/>
      <point x="51" y="782"/>
      <point x="65" y="773" type="curve" smooth="yes"/>
      <point x="350" y="602" type="line"/>
      <point x="355" y="284" type="line"/>
      <point x="155" y="29" type="line"/>
      <point x="80" y="29" type="line" smooth="yes"/>
      <point x="64" y="29"/>
      <point x="50" y="15"/>
      <point x="50" y="-1" type="curve" smooth="yes"/>
      <point x="50" y="-17"/>
      <point x="64" y="-31"/>
    </contour>
  </outline>
</glyph>
<glyph name="asciitilde" format="1">
  <advance width="760"/>
  <unicode hex="007E"/>
  <outline>
    <contour>
      <point x="97" y="79" type="curve" smooth="yes"/>
      <point x="370" y="273" type="line"/>
      <point x="680" y="273" type="line" smooth="yes"/>
      <point x="696" y="273"/>
      <point x="710" y="287"/>
      <point x="710" y="303" type="curve" smooth="yes"/>
      <point x="710" y="319"/>
      <point x="696" y="333"/>
      <point x="680" y="333" type="curve" smooth="yes"/>
      <point x="360" y="333" type="line" smooth="yes"/>
      <point x="355" y="333"/>
      <point x="347" y="330"/>
      <point x="343" y="327" type="curve" smooth="yes"/>
      <point x="63" y="127" type="line" smooth="yes"/>
      <point x="49" y="118"/>
      <point x="46" y="99"/>
      <point x="56" y="86" type="curve" smooth="yes"/>
      <point x="65" y="72"/>
      <point x="84" y="69"/>
    </contour>
  </outline>
</glyph>
<glyph name="cent" format="1">
  <advance width="504"/>
  <unicode hex="00A2"/>
  <outline>
    <contour>
      <point x="354" y="-100" type="curve" smooth="yes"/>
      <point x="354" y="-26" type="line"/>
      <point x="422" y="-30" type="line" smooth="yes"/>
      <point x="439" y="-31"/>
      <point x="453" y="-18"/>
      <point x="454" y="-2" type="curve" smooth="yes"/>
      <point x="455" y="15"/>
      <point x="442" y="29"/>
      <point x="426" y="30" type="curve" smooth="yes"/>
      <point x="148" y="44" type="line"/>
      <point x="113" y="336" type="line"/>
      <point x="427" y="370" type="line" smooth="yes"/>
      <point x="443" y="372"/>
      <point x="456" y="387"/>
      <point x="454" y="403" type="curve" smooth="yes"/>
      <point x="452" y="419"/>
      <point x="437" y="432"/>
      <point x="421" y="430" type="curve" smooth="yes"/>
      <point x="354" y="423" type="line"/>
      <point x="354" y="500" type="line" smooth="yes"/>
      <point x="354" y="516"/>
      <point x="340" y="530"/>
      <point x="324" y="530" type="curve" smooth="yes"/>
      <point x="308" y="530"/>
      <point x="294" y="516"/>
      <point x="294" y="500" type="curve" smooth="yes"/>
      <point x="294" y="416" type="line"/>
      <point x="76" y="392" type="line" smooth="yes"/>
      <point x="59" y="391"/>
      <point x="48" y="376"/>
      <point x="50" y="359" type="curve" smooth="yes"/>
      <point x="91" y="12" type="line" smooth="yes"/>
      <point x="93" y="-2"/>
      <point x="106" y="-14"/>
      <point x="119" y="-14" type="curve" smooth="yes"/>
      <point x="294" y="-23" type="line"/>
      <point x="294" y="-100" type="line" smooth="yes"/>
      <point x="294" y="-116"/>
      <point x="308" y="-130"/>
      <point x="324" y="-130" type="curve" smooth="yes"/>
      <point x="340" y="-130"/>
      <point x="354" y="-116"/>
    </contour>
  </outline>
</glyph>
<glyph name="sterling" format="1">
  <advance width="510"/>
  <unicode hex="00A3"/>
  <outline>
    <contour>
      <point x="81" y="-29" type="curve" smooth="yes"/>
      <point x="430" y="-29" type="line" smooth="yes"/>
      <point x="446" y="-29"/>
      <point x="460" y="-15"/>
      <point x="460" y="1" type="curve" smooth="yes"/>
      <point x="460" y="17"/>
      <point x="446" y="31"/>
      <point x="430" y="31" type="curve" smooth="yes"/>
      <point x="128" y="31" type="line"/>
      <point x="257" y="302" type="line" smooth="yes"/>
      <point x="259" y="305"/>
      <point x="260" y="311"/>
      <point x="260" y="314" type="curve" smooth="yes"/>
      <point x="261" y="371" type="line"/>
      <point x="380" y="371" type="line" smooth="yes"/>
      <point x="396" y="371"/>
      <point x="410" y="385"/>
      <point x="410" y="401" type="curve" smooth="yes"/>
      <point x="410" y="417"/>
      <point x="396" y="431"/>
      <point x="380" y="431" type="curve" smooth="yes"/>
      <point x="261" y="431" type="line"/>
      <point x="263" y="636" type="line"/>
      <point x="448" y="777" type="line" smooth="yes"/>
      <point x="461" y="787"/>
      <point x="464" y="806"/>
      <point x="454" y="819" type="curve" smooth="yes"/>
      <point x="444" y="832"/>
      <point x="425" y="835"/>
      <point x="412" y="825" type="curve" smooth="yes"/>
      <point x="215" y="675" type="line" smooth="yes"/>
      <point x="208" y="670"/>
      <point x="203" y="660"/>
      <point x="203" y="651" type="curve" smooth="yes"/>
      <point x="201" y="431" type="line"/>
      <point x="80" y="431" type="line" smooth="yes"/>
      <point x="64" y="431"/>
      <point x="50" y="417"/>
      <point x="50" y="401" type="curve" smooth="yes"/>
      <point x="50" y="385"/>
      <point x="64" y="371"/>
      <point x="80" y="371" type="curve" smooth="yes"/>
      <point x="201" y="371" type="line"/>
      <point x="200" y="321" type="line"/>
      <point x="53" y="14" type="line" smooth="yes"/>
      <point x="43" y="-8"/>
      <point x="57" y="-29"/>
    </contour>
  </outline>
</glyph>
<glyph name="section" format="1">
  <advance width="760"/>
  <unicode hex="00A7"/>
  <outline>
    <contour>
      <point x="552" y="249" type="line"/>
      <point x="385" y="332" type="line"/>
      <point x="208" y="557" type="line"/>
      <point x="375" y="474" type="line"/>
    </contour>
    <contour>
      <point x="383" y="-24" type="curve" smooth="yes"/>
      <point x="690" y="126" type="line" smooth="yes"/>
      <point x="714" y="138"/>
      <point x="715" y="168"/>
      <point x="690" y="180" type="curve" smooth="yes"/>
      <point x="631" y="209" type="line"/>
      <point x="639" y="220"/>
      <point x="639" y="235"/>
      <point x="631" y="246" type="curve" smooth="yes"/>
      <point x="418" y="517" type="line" smooth="yes"/>
      <point x="416" y="520"/>
      <point x="411" y="523"/>
      <point x="408" y="525" type="curve" smooth="yes"/>
      <point x="151" y="653" type="line"/>
      <point x="388" y="768" type="line"/>
      <point x="652" y="592" type="line"/>
      <point x="657" y="581"/>
      <point x="668" y="573"/>
      <point x="680" y="573" type="curve" smooth="yes"/>
      <point x="696" y="573"/>
      <point x="710" y="587"/>
      <point x="710" y="603" type="curve" smooth="yes"/>
      <point x="710" y="610" type="line" smooth="yes"/>
      <point x="710" y="618"/>
      <point x="704" y="630"/>
      <point x="697" y="635" type="curve" smooth="yes"/>
      <point x="407" y="828" type="line" smooth="yes"/>
      <point x="399" y="833"/>
      <point x="385" y="834"/>
      <point x="377" y="830" type="curve" smooth="yes"/>
      <point x="70" y="680" type="line" smooth="yes"/>
      <point x="46" y="668"/>
      <point x="45" y="638"/>
      <point x="70" y="626" type="curve" smooth="yes"/>
      <point x="129" y="597" type="line"/>
      <point x="121" y="586"/>
      <point x="121" y="571"/>
      <point x="129" y="560" type="curve" smooth="yes"/>
      <point x="342" y="289" type="line" smooth="yes"/>
      <point x="344" y="286"/>
      <point x="349" y="283"/>
      <point x="352" y="281" type="curve" smooth="yes"/>
      <point x="609" y="153" type="line"/>
      <point x="372" y="38" type="line"/>
      <point x="108" y="214" type="line"/>
      <point x="103" y="225"/>
      <point x="92" y="233"/>
      <point x="80" y="233" type="curve" smooth="yes"/>
      <point x="64" y="233"/>
      <point x="50" y="219"/>
      <point x="50" y="203" type="curve" smooth="yes"/>
      <point x="50" y="196" type="line" smooth="yes"/>
      <point x="50" y="188"/>
      <point x="56" y="176"/>
      <point x="63" y="171" type="curve" smooth="yes"/>
      <point x="353" y="-22" type="line" smooth="yes"/>
      <point x="361" y="-27"/>
      <point x="375" y="-28"/>
    </contour>
  </outline>
</glyph>
<glyph name="guillemotleft" format="1">
  <advance width="417"/>
  <unicode hex="00AB"/>
  <outline>
    <contour>
      <point x="358" y="-24" type="curve" smooth="yes"/>
      <point x="370" y="-13"/>
      <point x="370" y="7"/>
      <point x="358" y="18" type="curve" smooth="yes"/>
      <point x="312" y="64" type="line"/>
      <point x="367" y="392" type="line" smooth="yes"/>
      <point x="369" y="408"/>
      <point x="358" y="424"/>
      <point x="342" y="427" type="curve" smooth="yes"/>
      <point x="326" y="429"/>
      <point x="310" y="418"/>
      <point x="307" y="402" type="curve" smooth="yes"/>
      <point x="250" y="59" type="line" smooth="yes"/>
      <point x="249" y="51"/>
      <point x="253" y="39"/>
      <point x="259" y="33" type="curve" smooth="yes"/>
      <point x="316" y="-24" type="line" smooth="yes"/>
      <point x="327" y="-36"/>
      <point x="347" y="-36"/>
    </contour>
    <contour>
      <point x="158" y="-24" type="curve" smooth="yes"/>
      <point x="170" y="-13"/>
      <point x="170" y="7"/>
      <point x="158" y="18" type="curve" smooth="yes"/>
      <point x="112" y="64" type="line"/>
      <point x="167" y="392" type="line" smooth="yes"/>
      <point x="169" y="408"/>
      <point x="158" y="424"/>
      <point x="142" y="427" type="curve" smooth="yes"/>
      <point x="126" y="429"/>
      <point x="110" y="418"/>
      <point x="107" y="402" type="curve" smooth="yes"/>
      <point x="50" y="59" type="line" smooth="yes"/>
      <point x="49" y="51"/>
      <point x="53" y="39"/>
      <point x="59" y="33" type="curve" smooth="yes"/>
      <point x="116" y="-24" type="line" smooth="yes"/>
      <point x="127" y="-36"/>
      <point x="147" y="-36"/>
    </contour>
  </outline>
</glyph>
<glyph name="paragraph" format="1">
  <advance width="618"/>
  <unicode hex="00B6"/>
  <outline>
    <contour>
      <point x="538" y="-30" type="curve" smooth="yes"/>
      <point x="554" y="-30"/>
      <point x="568" y="-16"/>
      <point x="568" y="0" type="curve" smooth="yes"/>
      <point x="568" y="480" type="line" smooth="yes"/>
      <point x="568" y="483"/>
      <point x="567" y="488"/>
      <point x="566" y="491" type="curve" smooth="yes"/>
      <point x="446" y="811" type="line" smooth="yes"/>
      <point x="441" y="823"/>
      <point x="427" y="832"/>
      <point x="414" y="830" type="curve" smooth="yes"/>
      <point x="76" y="779" type="line" smooth="yes"/>
      <point x="59" y="776"/>
      <point x="47" y="761"/>
      <point x="51" y="744" type="curve" smooth="yes"/>
      <point x="117" y="403" type="line" smooth="yes"/>
      <point x="123" y="375"/>
      <point x="155" y="368"/>
      <point x="172" y="393" type="curve" smooth="yes"/>
      <point x="308" y="600" type="line"/>
      <point x="308" y="0" type="line" smooth="yes"/>
      <point x="308" y="-16"/>
      <point x="322" y="-30"/>
      <point x="338" y="-30" type="curve" smooth="yes"/>
      <point x="354" y="-30"/>
      <point x="368" y="-16"/>
      <point x="368" y="0" type="curve" smooth="yes"/>
      <point x="368" y="700" type="line" smooth="yes"/>
      <point x="368" y="732"/>
      <point x="331" y="743"/>
      <point x="313" y="716" type="curve" smooth="yes"/>
      <point x="162" y="487" type="line"/>
      <point x="116" y="724" type="line"/>
      <point x="398" y="767" type="line"/>
      <point x="508" y="475" type="line"/>
      <point x="508" y="0" type="line" smooth="yes"/>
      <point x="508" y="-16"/>
      <point x="522" y="-30"/>
    </contour>
  </outline>
</glyph>
<glyph name="guillemotright" format="1">
  <advance width="417"/>
  <unicode hex="00BB"/>
  <outline>
    <contour>
      <point x="101" y="-20" type="curve" smooth="yes"/>
      <point x="158" y="37" type="line" smooth="yes"/>
      <point x="164" y="43"/>
      <point x="168" y="55"/>
      <point x="167" y="63" type="curve" smooth="yes"/>
      <point x="110" y="406" type="line" smooth="yes"/>
      <point x="107" y="422"/>
      <point x="91" y="433"/>
      <point x="75" y="431" type="curve" smooth="yes"/>
      <point x="59" y="428"/>
      <point x="48" y="412"/>
      <point x="50" y="396" type="curve" smooth="yes"/>
      <point x="105" y="68" type="line"/>
      <point x="59" y="22" type="line" smooth="yes"/>
      <point x="47" y="11"/>
      <point x="47" y="-9"/>
      <point x="59" y="-20" type="curve" smooth="yes"/>
      <point x="70" y="-32"/>
      <point x="90" y="-32"/>
    </contour>
    <contour>
      <point x="301" y="-20" type="curve" smooth="yes"/>
      <point x="358" y="37" type="line" smooth="yes"/>
      <point x="364" y="43"/>
      <point x="368" y="55"/>
      <point x="367" y="63" type="curve" smooth="yes"/>
      <point x="310" y="406" type="line" smooth="yes"/>
      <point x="307" y="422"/>
      <point x="291" y="433"/>
      <point x="275" y="431" type="curve" smooth="yes"/>
      <point x="259" y="428"/>
      <point x="248" y="412"/>
      <point x="250" y="396" type="curve" smooth="yes"/>
      <point x="305" y="68" type="line"/>
      <point x="259" y="22" type="line" smooth="yes"/>
      <point x="247" y="11"/>
      <point x="247" y="-9"/>
      <point x="259" y="-20" type="curve" smooth="yes"/>
      <point x="270" y="-32"/>
      <point x="290" y="-32"/>
    </contour>
  </outline>
</glyph>
<glyph name="Atilde" format="1">
  <advance width="760"/>
  <unicode hex="00C3"/>
  <outline>
    <contour>
      <point x="97" y="904" type="curve" smooth="yes"/>
      <point x="370" y="1098" type="line"/>
      <point x="680" y="1098" type="line" smooth="yes"/>
      <point x="696" y="1098"/>
      <point x="710" y="1112"/>
      <point x="710" y="1128" type="curve" smooth="yes"/>
      <point x="710" y="1144"/>
      <point x="696" y="1158"/>
      <point x="680" y="1158" type="curve" smooth="yes"/>
      <point x="360" y="1158" type="line" smooth="yes"/>
      <point x="355" y="1158"/>
      <point x="347" y="1155"/>
      <point x="343" y="1152" type="curve" smooth="yes"/>
      <point x="63" y="952" type="line" smooth="yes"/>
      <point x="49" y="943"/>
      <point x="46" y="924"/>
      <point x="56" y="911" type="curve" smooth="yes"/>
      <point x="65" y="897"/>
      <point x="84" y="894"/>
    </contour>
    <contour>
      <point x="680" y="-34" type="curve" smooth="yes"/>
      <point x="696" y="-34"/>
      <point x="710" y="-20"/>
      <point x="710" y="-4" type="curve" smooth="yes"/>
      <point x="710" y="499" type="line" smooth="yes"/>
      <point x="710" y="504"/>
      <point x="708" y="511"/>
      <point x="706" y="515" type="curve" smooth="yes"/>
      <point x="524" y="811" type="line" smooth="yes"/>
      <point x="519" y="820"/>
      <point x="507" y="826"/>
      <point x="497" y="826" type="curve" smooth="yes"/>
      <point x="162" y="806" type="line" smooth="yes"/>
      <point x="150" y="805"/>
      <point x="138" y="795"/>
      <point x="135" y="783" type="curve" smooth="yes"/>
      <point x="51" y="446" type="line" smooth="yes"/>
      <point x="50" y="444"/>
      <point x="50" y="441"/>
      <point x="50" y="439" type="curve" smooth="yes"/>
      <point x="55" y="98" type="line" smooth="yes"/>
      <point x="55" y="69"/>
      <point x="86" y="57"/>
      <point x="106" y="78" type="curve" smooth="yes"/>
      <point x="342" y="316" type="line"/>
      <point x="650" y="316" type="line"/>
      <point x="650" y="-4" type="line" smooth="yes"/>
      <point x="650" y="-20"/>
      <point x="664" y="-34"/>
    </contour>
    <contour>
      <point x="309" y="367" type="curve" smooth="yes"/>
      <point x="114" y="171" type="line"/>
      <point x="110" y="435" type="line"/>
      <point x="188" y="748" type="line"/>
      <point x="483" y="765" type="line"/>
      <point x="650" y="491" type="line"/>
      <point x="650" y="376" type="line"/>
      <point x="330" y="376" type="line" smooth="yes"/>
      <point x="323" y="376"/>
      <point x="314" y="372"/>
    </contour>
  </outline>
</glyph>
<glyph name="Egrave" format="1">
  <advance width="765"/>
  <unicode hex="00C8"/>
  <outline>
    <contour>
      <point x="405" y="911" type="curve" smooth="yes"/>
      <point x="414" y="925"/>
      <point x="410" y="944"/>
      <point x="397" y="953" type="curve" smooth="yes"/>
      <point x="113" y="1142" type="line"/>
      <point x="97" y="1153" type="line" smooth="yes"/>
      <point x="83" y="1162"/>
      <point x="64" y="1158"/>
      <point x="55" y="1145" type="curve" smooth="yes"/>
      <point x="46" y="1131"/>
      <point x="50" y="1112"/>
      <point x="63" y="1103" type="curve" smooth="yes"/>
      <point x="80" y="1092" type="line"/>
      <point x="363" y="903" type="line" smooth="yes"/>
      <point x="377" y="894"/>
      <point x="396" y="898"/>
    </contour>
    <contour>
      <point x="485" y="-30" type="line" smooth="yes"/>
      <point x="488" y="-30" type="line"/>
      <point x="496" y="-29"/>
      <point x="503" y="-27"/>
      <point x="508" y="-21" type="curve" smooth="yes"/>
      <point x="706" y="175" type="line" smooth="yes"/>
      <point x="718" y="186"/>
      <point x="718" y="206"/>
      <point x="706" y="217" type="curve" smooth="yes"/>
      <point x="695" y="229"/>
      <point x="675" y="229"/>
      <point x="664" y="217" type="curve" smooth="yes"/>
      <point x="475" y="30" type="line"/>
      <point x="412" y="30" type="line"/>
      <point x="140" y="145" type="line"/>
      <point x="337" y="382" type="line" smooth="yes"/>
      <point x="346" y="393"/>
      <point x="345" y="411"/>
      <point x="336" y="421" type="curve" smooth="yes"/>
      <point x="137" y="647" type="line"/>
      <point x="399" y="766" type="line"/>
      <point x="667" y="577" type="line" smooth="yes"/>
      <point x="680" y="568"/>
      <point x="699" y="571"/>
      <point x="709" y="585" type="curve" smooth="yes"/>
      <point x="718" y="598"/>
      <point x="715" y="617"/>
      <point x="701" y="627" type="curve" smooth="yes"/>
      <point x="420" y="825" type="line" smooth="yes"/>
      <point x="412" y="830"/>
      <point x="399" y="831"/>
      <point x="390" y="827" type="curve" smooth="yes"/>
      <point x="75" y="684" type="line" smooth="yes"/>
      <point x="55" y="676"/>
      <point x="50" y="653"/>
      <point x="65" y="637" type="curve" smooth="yes"/>
      <point x="274" y="401" type="line"/>
      <point x="68" y="152" type="line" smooth="yes"/>
      <point x="55" y="136"/>
      <point x="60" y="114"/>
      <point x="80" y="105" type="curve" smooth="yes"/>
      <point x="395" y="-28" type="line" smooth="yes"/>
      <point x="398" y="-29"/>
      <point x="403" y="-30"/>
      <point x="406" y="-30" type="curve" smooth="yes"/>
    </contour>
  </outline>
</glyph>
<glyph name="Igrave" format="1">
  <advance width="760"/>
  <unicode hex="00CC"/>
  <outline>
    <contour>
      <point x="409" y="911" type="curve" smooth="yes"/>
      <point x="418" y="925"/>
      <point x="414" y="944"/>
      <point x="401" y="953" type="curve" smooth="yes"/>
      <point x="117" y="1142" type="line"/>
      <point x="101" y="1153" type="line" smooth="yes"/>
      <point x="87" y="1162"/>
      <point x="68" y="1158"/>
      <point x="59" y="1145" type="curve" smooth="yes"/>
      <point x="50" y="1131"/>
      <point x="54" y="1112"/>
      <point x="67" y="1103" type="curve" smooth="yes"/>
      <point x="84" y="1092" type="line"/>
      <point x="367" y="903" type="line" smooth="yes"/>
      <point x="381" y="894"/>
      <point x="400" y="898"/>
    </contour>
    <contour>
      <point x="80" y="-31" type="curve" smooth="yes"/>
      <point x="430" y="-31" type="line" smooth="yes"/>
      <point x="449" y="-31"/>
      <point x="462" y="-15"/>
      <point x="460" y="3" type="curve" smooth="yes"/>
      <point x="410" y="341" type="line"/>
      <point x="402" y="660" type="line"/>
      <point x="691" y="771" type="line" smooth="yes"/>
      <point x="706" y="777"/>
      <point x="714" y="795"/>
      <point x="708" y="810" type="curve" smooth="yes"/>
      <point x="702" y="825"/>
      <point x="684" y="833"/>
      <point x="669" y="827" type="curve" smooth="yes"/>
      <point x="360" y="708" type="line" smooth="yes"/>
      <point x="350" y="704"/>
      <point x="341" y="691"/>
      <point x="341" y="679" type="curve" smooth="yes"/>
      <point x="350" y="338" type="line" smooth="yes"/>
      <point x="350" y="337"/>
      <point x="350" y="335"/>
      <point x="350" y="334" type="curve" smooth="yes"/>
      <point x="395" y="29" type="line"/>
      <point x="80" y="29" type="line" smooth="yes"/>
      <point x="64" y="29"/>
      <point x="50" y="15"/>
      <point x="50" y="-1" type="curve" smooth="yes"/>
      <point x="50" y="-17"/>
      <point x="64" y="-31"/>
    </contour>
  </outline>
</glyph>
<glyph name="Otilde" format="1">
  <advance width="761"/>
  <unicode hex="00D5"/>
  <outline>
    <contour>
      <point x="97" y="904" type="curve" smooth="yes"/>
      <point x="370" y="1098" type="line"/>
      <point x="680" y="1098" type="line" smooth="yes"/>
      <point x="696" y="1098"/>
      <point x="710" y="1112"/>
      <point x="710" y="1128" type="curve" smooth="yes"/>
      <point x="710" y="1144"/>
      <point x="696" y="1158"/>
      <point x="680" y="1158" type="curve" smooth="yes"/>
      <point x="360" y="1158" type="line" smooth="yes"/>
      <point x="355" y="1158"/>
      <point x="347" y="1155"/>
      <point x="343" y="1152" type="curve" smooth="yes"/>
      <point x="63" y="952" type="line" smooth="yes"/>
      <point x="49" y="943"/>
      <point x="46" y="924"/>
      <point x="56" y="911" type="curve" smooth="yes"/>
      <point x="65" y="897"/>
      <point x="84" y="894"/>
    </contour>
    <contour>
      <point x="468" y="29" type="line"/>
      <point x="297" y="29" type="line"/>
      <point x="110" y="289" type="line"/>
      <point x="110" y="602" type="line"/>
      <point x="379" y="764" type="line"/>
      <point x="651" y="610" type="line"/>
      <point x="651" y="288" type="line"/>
    </contour>
    <contour>
      <point x="474" y="-31" type="line" smooth="yes"/>
      <point x="476" y="-31"/>
      <point x="478" y="-31"/>
      <point x="479" y="-30" type="curve"/>
      <point x="490" y="-32"/>
      <point x="502" y="-28"/>
      <point x="509" y="-18" type="curve" smooth="yes"/>
      <point x="706" y="262" type="line" smooth="yes"/>
      <point x="709" y="266"/>
      <point x="711" y="274"/>
      <point x="711" y="279" type="curve" smooth="yes"/>
      <point x="711" y="627" type="line" smooth="yes"/>
      <point x="711" y="637"/>
      <point x="704" y="648"/>
      <point x="695" y="653" type="curve" smooth="yes"/>
      <point x="393" y="825" type="line" smooth="yes"/>
      <point x="385" y="830"/>
      <point x="371" y="830"/>
      <point x="363" y="825" type="curve" smooth="yes"/>
      <point x="65" y="645" type="line" smooth="yes"/>
      <point x="57" y="640"/>
      <point x="50" y="629"/>
      <point x="50" y="619" type="curve" smooth="yes"/>
      <point x="50" y="279" type="line" smooth="yes"/>
      <point x="50" y="274"/>
      <point x="53" y="266"/>
      <point x="56" y="261" type="curve" smooth="yes"/>
      <point x="258" y="-19" type="line" smooth="yes"/>
      <point x="263" y="-25"/>
      <point x="274" y="-31"/>
      <point x="282" y="-31" type="curve" smooth="yes"/>
    </contour>
  </outline>
</glyph>
<glyph name="Oslash" format="1">
  <advance width="760"/>
  <unicode hex="00D8"/>
  <outline>
    <contour>
      <point x="225" y="244" type="line"/>
      <point x="114" y="368" type="line"/>
      <point x="209" y="660" type="line"/>
      <point x="516" y="665" type="line"/>
      <point x="525" y="644" type="line"/>
    </contour>
    <contour>
      <point x="459" y="131" type="line"/>
      <point x="326" y="131" type="line"/>
      <point x="266" y="198" type="line"/>
      <point x="553" y="581" type="line"/>
      <point x="639" y="384" type="line"/>
    </contour>
    <contour>
      <point x="104" y="-17" type="curve" smooth="yes"/>
      <point x="229" y="149" type="line"/>
      <point x="290" y="81" type="line" smooth="yes"/>
      <point x="295" y="75"/>
      <point x="305" y="71"/>
      <point x="312" y="71" type="curve" smooth="yes"/>
      <point x="465" y="71" type="line" smooth="yes"/>
      <point x="467" y="71"/>
      <point x="469" y="71"/>
      <point x="470" y="72" type="curve"/>
      <point x="481" y="70"/>
      <point x="493" y="74"/>
      <point x="499" y="84" type="curve" smooth="yes"/>
      <point x="697" y="364" type="line" smooth="yes"/>
      <point x="703" y="371"/>
      <point x="704" y="384"/>
      <point x="700" y="393" type="curve" smooth="yes"/>
      <point x="594" y="636" type="line"/>
      <point x="704" y="783" type="line" smooth="yes"/>
      <point x="714" y="796"/>
      <point x="711" y="815"/>
      <point x="698" y="825" type="curve" smooth="yes"/>
      <point x="685" y="835"/>
      <point x="666" y="832"/>
      <point x="656" y="819" type="curve" smooth="yes"/>
      <point x="566" y="699" type="line"/>
      <point x="563" y="708" type="line" smooth="yes"/>
      <point x="558" y="718"/>
      <point x="546" y="726"/>
      <point x="535" y="726" type="curve" smooth="yes"/>
      <point x="186" y="719" type="line" smooth="yes"/>
      <point x="174" y="719"/>
      <point x="162" y="710"/>
      <point x="158" y="699" type="curve" smooth="yes"/>
      <point x="51" y="370" type="line" smooth="yes"/>
      <point x="49" y="361"/>
      <point x="51" y="348"/>
      <point x="58" y="341" type="curve" smooth="yes"/>
      <point x="188" y="195" type="line"/>
      <point x="56" y="19" type="line" smooth="yes"/>
      <point x="46" y="6"/>
      <point x="49" y="-13"/>
      <point x="62" y="-23" type="curve" smooth="yes"/>
      <point x="75" y="-33"/>
      <point x="94" y="-30"/>
    </contour>
  </outline>
</glyph>
<glyph name="Ugrave" format="1">
  <advance width="759"/>
  <unicode hex="00D9"/>
  <outline>
    <contour>
      <point x="406" y="911" type="curve" smooth="yes"/>
      <point x="415" y="925"/>
      <point x="411" y="944"/>
      <point x="398" y="953" type="curve" smooth="yes"/>
      <point x="114" y="1142" type="line"/>
      <point x="98" y="1153" type="line" smooth="yes"/>
      <point x="84" y="1162"/>
      <point x="65" y="1158"/>
      <point x="56" y="1145" type="curve" smooth="yes"/>
      <point x="47" y="1131"/>
      <point x="51" y="1112"/>
      <point x="64" y="1103" type="curve" smooth="yes"/>
      <point x="81" y="1092" type="line"/>
      <point x="364" y="903" type="line" smooth="yes"/>
      <point x="378" y="894"/>
      <point x="397" y="898"/>
    </contour>
    <contour>
      <point x="351" y="-30" type="curve" smooth="yes"/>
      <point x="677" y="71" type="line" smooth="yes"/>
      <point x="688" y="74"/>
      <point x="698" y="87"/>
      <point x="698" y="99" type="curve" smooth="yes"/>
      <point x="709" y="449" type="line"/>
      <point x="709" y="799" type="line" smooth="yes"/>
      <point x="709" y="815"/>
      <point x="695" y="829"/>
      <point x="679" y="829" type="curve" smooth="yes"/>
      <point x="663" y="829"/>
      <point x="649" y="815"/>
      <point x="649" y="799" type="curve" smooth="yes"/>
      <point x="649" y="449" type="line"/>
      <point x="639" y="122" type="line"/>
      <point x="349" y="33" type="line"/>
      <point x="110" y="243" type="line"/>
      <point x="110" y="799" type="line" smooth="yes"/>
      <point x="110" y="815"/>
      <point x="96" y="829"/>
      <point x="80" y="829" type="curve" smooth="yes"/>
      <point x="64" y="829"/>
      <point x="50" y="815"/>
      <point x="50" y="799" type="curve" smooth="yes"/>
      <point x="50" y="229" type="line" smooth="yes"/>
      <point x="50" y="222"/>
      <point x="55" y="211"/>
      <point x="60" y="206" type="curve" smooth="yes"/>
      <point x="322" y="-24" type="line" smooth="yes"/>
      <point x="329" y="-30"/>
      <point x="342" y="-32"/>
    </contour>
  </outline>
</glyph>
<glyph name="acircumflex" format="1">
  <advance width="760"/>
  <unicode hex="00E2"/>
  <outline>
    <contour>
      <point x="97" y="903" type="curve" smooth="yes"/>
      <point x="364" y="1081" type="line"/>
      <point x="648" y="913" type="line"/>
      <point x="663" y="903" type="line" smooth="yes"/>
      <point x="677" y="894"/>
      <point x="696" y="898"/>
      <point x="705" y="911" type="curve" smooth="yes"/>
      <point x="714" y="925"/>
      <point x="710" y="944"/>
      <point x="697" y="953" type="curve" smooth="yes"/>
      <point x="679" y="965" type="line"/>
      <point x="379" y="1143" type="line" smooth="yes"/>
      <point x="370" y="1148"/>
      <point x="355" y="1148"/>
      <point x="347" y="1142" type="curve" smooth="yes"/>
      <point x="63" y="953" type="line" smooth="yes"/>
      <point x="50" y="944"/>
      <point x="46" y="925"/>
      <point x="55" y="911" type="curve" smooth="yes"/>
      <point x="64" y="898"/>
      <point x="83" y="894"/>
    </contour>
    <contour>
      <point x="680" y="-34" type="curve" smooth="yes"/>
      <point x="696" y="-34"/>
      <point x="710" y="-20"/>
      <point x="710" y="-4" type="curve" smooth="yes"/>
      <point x="710" y="499" type="line" smooth="yes"/>
      <point x="710" y="504"/>
      <point x="708" y="511"/>
      <point x="706" y="515" type="curve" smooth="yes"/>
      <point x="524" y="811" type="line" smooth="yes"/>
      <point x="519" y="820"/>
      <point x="507" y="826"/>
      <point x="497" y="826" type="curve" smooth="yes"/>
      <point x="162" y="806" type="line" smooth="yes"/>
      <point x="150" y="805"/>
      <point x="138" y="795"/>
      <point x="135" y="783" type="curve" smooth="yes"/>
      <point x="51" y="446" type="line" smooth="yes"/>
      <point x="50" y="444"/>
      <point x="50" y="441"/>
      <point x="50" y="439" type="curve" smooth="yes"/>
      <point x="55" y="98" type="line" smooth="yes"/>
      <point x="55" y="69"/>
      <point x="86" y="57"/>
      <point x="106" y="78" type="curve" smooth="yes"/>
      <point x="342" y="316" type="line"/>
      <point x="650" y="316" type="line"/>
      <point x="650" y="-4" type="line" smooth="yes"/>
      <point x="650" y="-20"/>
      <point x="664" y="-34"/>
    </contour>
    <contour>
      <point x="309" y="367" type="curve" smooth="yes"/>
      <point x="114" y="171" type="line"/>
      <point x="110" y="435" type="line"/>
      <point x="188" y="748" type="line"/>
      <point x="483" y="765" type="line"/>
      <point x="650" y="491" type="line"/>
      <point x="650" y="376" type="line"/>
      <point x="330" y="376" type="line" smooth="yes"/>
      <point x="323" y="376"/>
      <point x="314" y="372"/>
    </contour>
  </outline>
</glyph>
<glyph name="ccedilla" format="1">
  <advance width="760"/>
  <unicode hex="00E7"/>
  <outline>
    <contour>
      <point x="625" y="8" type="line" smooth="yes"/>
      <point x="637" y="9"/>
      <point x="649" y="18"/>
      <point x="653" y="29" type="curve" smooth="yes"/>
      <point x="708" y="191" type="line" smooth="yes"/>
      <point x="714" y="207"/>
      <point x="705" y="224"/>
      <point x="690" y="229" type="curve" smooth="yes"/>
      <point x="674" y="235"/>
      <point x="657" y="226"/>
      <point x="652" y="211" type="curve" smooth="yes"/>
      <point x="603" y="68" type="line"/>
      <point x="295" y="59" type="line"/>
      <point x="110" y="322" type="line"/>
      <point x="111" y="636" type="line"/>
      <point x="395" y="767" type="line"/>
      <point x="663" y="577" type="line" smooth="yes"/>
      <point x="676" y="567"/>
      <point x="695" y="570"/>
      <point x="704" y="584" type="curve" smooth="yes"/>
      <point x="714" y="597"/>
      <point x="711" y="616"/>
      <point x="697" y="625" type="curve" smooth="yes"/>
      <point x="415" y="825" type="line" smooth="yes"/>
      <point x="408" y="831"/>
      <point x="394" y="832"/>
      <point x="385" y="828" type="curve" smooth="yes"/>
      <point x="69" y="683" type="line" smooth="yes"/>
      <point x="59" y="678"/>
      <point x="51" y="666"/>
      <point x="51" y="655" type="curve" smooth="yes"/>
      <point x="50" y="312" type="line" smooth="yes"/>
      <point x="50" y="307"/>
      <point x="52" y="299"/>
      <point x="55" y="295" type="curve" smooth="yes"/>
      <point x="255" y="12" type="line" smooth="yes"/>
      <point x="260" y="4"/>
      <point x="272" y="-1"/>
      <point x="281" y="-1" type="curve" smooth="yes"/>
    </contour>
  </outline>
</glyph>
<glyph name="eacute" format="1">
  <advance width="759"/>
  <unicode hex="00E9"/>
  <outline>
    <contour>
      <point x="349" y="911" type="curve" smooth="yes"/>
      <point x="358" y="898"/>
      <point x="377" y="894"/>
      <point x="391" y="903" type="curve" smooth="yes"/>
      <point x="674" y="1092" type="line"/>
      <point x="691" y="1103" type="line" smooth="yes"/>
      <point x="704" y="1112"/>
      <point x="708" y="1131"/>
      <point x="699" y="1145" type="curve" smooth="yes"/>
      <point x="690" y="1158"/>
      <point x="671" y="1162"/>
      <point x="657" y="1153" type="curve" smooth="yes"/>
      <point x="641" y="1142" type="line"/>
      <point x="357" y="953" type="line" smooth="yes"/>
      <point x="344" y="944"/>
      <point x="340" y="925"/>
    </contour>
    <contour>
      <point x="479" y="-30" type="line" smooth="yes"/>
      <point x="482" y="-30" type="line"/>
      <point x="490" y="-29"/>
      <point x="497" y="-27"/>
      <point x="502" y="-21" type="curve" smooth="yes"/>
      <point x="700" y="175" type="line" smooth="yes"/>
      <point x="712" y="186"/>
      <point x="712" y="206"/>
      <point x="700" y="217" type="curve" smooth="yes"/>
      <point x="689" y="229"/>
      <point x="669" y="229"/>
      <point x="658" y="217" type="curve" smooth="yes"/>
      <point x="469" y="30" type="line"/>
      <point x="406" y="30" type="line"/>
      <point x="134" y="145" type="line"/>
      <point x="331" y="382" type="line" smooth="yes"/>
      <point x="340" y="393"/>
      <point x="339" y="411"/>
      <point x="330" y="421" type="curve" smooth="yes"/>
      <point x="131" y="647" type="line"/>
      <point x="393" y="766" type="line"/>
      <point x="661" y="577" type="line" smooth="yes"/>
      <point x="674" y="568"/>
      <point x="693" y="571"/>
      <point x="703" y="585" type="curve" smooth="yes"/>
      <point x="712" y="598"/>
      <point x="709" y="617"/>
      <point x="695" y="627" type="curve" smooth="yes"/>
      <point x="414" y="825" type="line" smooth="yes"/>
      <point x="406" y="830"/>
      <point x="393" y="831"/>
      <point x="384" y="827" type="curve" smooth="yes"/>
      <point x="69" y="684" type="line" smooth="yes"/>
      <point x="49" y="676"/>
      <point x="44" y="653"/>
      <point x="59" y="637" type="curve" smooth="yes"/>
      <point x="268" y="401" type="line"/>
      <point x="62" y="152" type="line" smooth="yes"/>
      <point x="49" y="136"/>
      <point x="54" y="114"/>
      <point x="74" y="105" type="curve" smooth="yes"/>
      <point x="389" y="-28" type="line" smooth="yes"/>
      <point x="392" y="-29"/>
      <point x="397" y="-30"/>
      <point x="400" y="-30" type="curve" smooth="yes"/>
    </contour>
  </outline>
</glyph>
<glyph name="iacute" format="1">
  <advance width="764"/>
  <unicode hex="00ED"/>
  <outline>
    <contour>
      <point x="359" y="911" type="curve" smooth="yes"/>
      <point x="368" y="898"/>
      <point x="387" y="894"/>
      <point x="401" y="903" type="curve" smooth="yes"/>
      <point x="684" y="1092" type="line"/>
      <point x="701" y="1103" type="line" smooth="yes"/>
      <point x="714" y="1112"/>
      <point x="718" y="1131"/>
      <point x="709" y="1145" type="curve" smooth="yes"/>
      <point x="700" y="1158"/>
      <point x="681" y="1162"/>
      <point x="667" y="1153" type="curve" smooth="yes"/>
      <point x="651" y="1142" type="line"/>
      <point x="367" y="953" type="line" smooth="yes"/>
      <point x="354" y="944"/>
      <point x="350" y="925"/>
    </contour>
    <contour>
      <point x="80" y="-31" type="curve" smooth="yes"/>
      <point x="430" y="-31" type="line" smooth="yes"/>
      <point x="449" y="-31"/>
      <point x="462" y="-15"/>
      <point x="460" y="3" type="curve" smooth="yes"/>
      <point x="410" y="341" type="line"/>
      <point x="402" y="660" type="line"/>
      <point x="691" y="771" type="line" smooth="yes"/>
      <point x="706" y="777"/>
      <point x="714" y="795"/>
      <point x="708" y="810" type="curve" smooth="yes"/>
      <point x="702" y="825"/>
      <point x="684" y="833"/>
      <point x="669" y="827" type="curve" smooth="yes"/>
      <point x="360" y="708" type="line" smooth="yes"/>
      <point x="350" y="704"/>
      <point x="341" y="691"/>
      <point x="341" y="679" type="curve" smooth="yes"/>
      <point x="350" y="338" type="line" smooth="yes"/>
      <point x="350" y="337"/>
      <point x="350" y="335"/>
      <point x="350" y="334" type="curve" smooth="yes"/>
      <point x="395" y="29" type="line"/>
      <point x="80" y="29" type="line" smooth="yes"/>
      <point x="64" y="29"/>
      <point x="50" y="15"/>
      <point x="50" y="-1" type="curve" smooth="yes"/>
      <point x="50" y="-17"/>
      <point x="64" y="-31"/>
    </contour>
  </outline>
</glyph>
<glyph name="icircumflex" format="1">
  <advance width="764"/>
  <unicode hex="00EE"/>
  <outline>
    <contour>
      <point x="101" y="903" type="curve" smooth="yes"/>
      <point x="368" y="1081" type="line"/>
      <point x="652" y="913" type="line"/>
      <point x="667" y="903" type="line" smooth="yes"/>
      <point x="681" y="894"/>
      <point x="700" y="898"/>
      <point x="709" y="911" type="curve" smooth="yes"/>
      <point x="718" y="925"/>
      <point x="714" y="944"/>
      <point x="701" y="953" type="curve" smooth="yes"/>
      <point x="683" y="965" type="line"/>
      <point x="383" y="1143" type="line" smooth="yes"/>
      <point x="374" y="1148"/>
      <point x="359" y="1148"/>
      <point x="351" y="1142" type="curve" smooth="yes"/>
      <point x="67" y="953" type="line" smooth="yes"/>
      <point x="54" y="944"/>
      <point x="50" y="925"/>
      <point x="59" y="911" type="curve" smooth="yes"/>
      <point x="68" y="898"/>
      <point x="87" y="894"/>
    </contour>
    <contour>
      <point x="80" y="-31" type="curve" smooth="yes"/>
      <point x="430" y="-31" type="line" smooth="yes"/>
      <point x="449" y="-31"/>
      <point x="462" y="-15"/>
      <point x="460" y="3" type="curve" smooth="yes"/>
      <point x="410" y="341" type="line"/>
      <point x="402" y="660" type="line"/>
      <point x="691" y="771" type="line" smooth="yes"/>
      <point x="706" y="777"/>
      <point x="714" y="795"/>
      <point x="708" y="810" type="curve" smooth="yes"/>
      <point x="702" y="825"/>
      <point x="684" y="833"/>
      <point x="669" y="827" type="curve" smooth="yes"/>
      <point x="360" y="708" type="line" smooth="yes"/>
      <point x="350" y="704"/>
      <point x="341" y="691"/>
      <point x="341" y="679" type="curve" smooth="yes"/>
      <point x="350" y="338" type="line" smooth="yes"/>
      <point x="350" y="337"/>
      <point x="350" y="335"/>
      <point x="350" y="334" type="curve" smooth="yes"/>
      <point x="395" y="29" type="line"/>
      <point x="80" y="29" type="line" smooth="yes"/>
      <point x="64" y="29"/>
      <point x="50" y="15"/>
      <point x="50" y="-1" type="curve" smooth="yes"/>
      <point x="50" y="-17"/>
      <point x="64" y="-31"/>
    </contour>
  </outline>
</glyph>
<glyph name="ntilde" format="1">
  <advance width="764"/>
  <unicode hex="00F1"/>
  <outline>
    <contour>
      <point x="101" y="904" type="curve" smooth="yes"/>
      <point x="374" y="1098" type="line"/>
      <point x="684" y="1098" type="line" smooth="yes"/>
      <point x="700" y="1098"/>
      <point x="714" y="1112"/>
      <point x="714" y="1128" type="curve" smooth="yes"/>
      <point x="714" y="1144"/>
      <point x="700" y="1158"/>
      <point x="684" y="1158" type="curve" smooth="yes"/>
      <point x="364" y="1158" type="line" smooth="yes"/>
      <point x="359" y="1158"/>
      <point x="351" y="1155"/>
      <point x="347" y="1152" type="curve" smooth="yes"/>
      <point x="67" y="952" type="line" smooth="yes"/>
      <point x="53" y="943"/>
      <point x="50" y="924"/>
      <point x="60" y="911" type="curve" smooth="yes"/>
      <point x="69" y="897"/>
      <point x="88" y="894"/>
    </contour>
    <contour>
      <point x="110" y="-1" type="curve" smooth="yes"/>
      <point x="110" y="109" type="line"/>
      <point x="110" y="458" type="line"/>
      <point x="118" y="746" type="line"/>
      <point x="350" y="600" type="line"/>
      <point x="350" y="279" type="line" smooth="yes"/>
      <point x="350" y="270"/>
      <point x="357" y="258"/>
      <point x="365" y="253" type="curve" smooth="yes"/>
      <point x="665" y="73" type="line" smooth="yes"/>
      <point x="686" y="60"/>
      <point x="710" y="74"/>
      <point x="710" y="99" type="curve" smooth="yes"/>
      <point x="710" y="799" type="line" smooth="yes"/>
      <point x="710" y="815"/>
      <point x="696" y="829"/>
      <point x="680" y="829" type="curve" smooth="yes"/>
      <point x="664" y="829"/>
      <point x="650" y="815"/>
      <point x="650" y="799" type="curve" smooth="yes"/>
      <point x="650" y="152" type="line"/>
      <point x="410" y="296" type="line"/>
      <point x="410" y="617" type="line" smooth="yes"/>
      <point x="410" y="626"/>
      <point x="403" y="637"/>
      <point x="396" y="642" type="curve" smooth="yes"/>
      <point x="106" y="824" type="line" smooth="yes"/>
      <point x="85" y="838"/>
      <point x="61" y="825"/>
      <point x="60" y="800" type="curve" smooth="yes"/>
      <point x="50" y="460" type="line"/>
      <point x="50" y="109" type="line"/>
      <point x="50" y="-1" type="line" smooth="yes"/>
      <point x="50" y="-17"/>
      <point x="64" y="-31"/>
      <point x="80" y="-31" type="curve" smooth="yes"/>
      <point x="96" y="-31"/>
      <point x="110" y="-17"/>
    </contour>
  </outline>
</glyph>
<glyph name="oacute" format="1">
  <advance width="761"/>
  <unicode hex="00F3"/>
  <outline>
    <contour>
      <point x="355" y="911" type="curve" smooth="yes"/>
      <point x="364" y="898"/>
      <point x="383" y="894"/>
      <point x="397" y="903" type="curve" smooth="yes"/>
      <point x="680" y="1092" type="line"/>
      <point x="697" y="1103" type="line" smooth="yes"/>
      <point x="710" y="1112"/>
      <point x="714" y="1131"/>
      <point x="705" y="1145" type="curve" smooth="yes"/>
      <point x="696" y="1158"/>
      <point x="677" y="1162"/>
      <point x="663" y="1153" type="curve" smooth="yes"/>
      <point x="647" y="1142" type="line"/>
      <point x="363" y="953" type="line" smooth="yes"/>
      <point x="350" y="944"/>
      <point x="346" y="925"/>
    </contour>
    <contour>
      <point x="468" y="29" type="line"/>
      <point x="297" y="29" type="line"/>
      <point x="110" y="289" type="line"/>
      <point x="110" y="602" type="line"/>
      <point x="379" y="764" type="line"/>
      <point x="651" y="610" type="line"/>
      <point x="651" y="288" type="line"/>
    </contour>
    <contour>
      <point x="474" y="-31" type="line" smooth="yes"/>
      <point x="476" y="-31"/>
      <point x="478" y="-31"/>
      <point x="479" y="-30" type="curve"/>
      <point x="490" y="-32"/>
      <point x="502" y="-28"/>
      <point x="509" y="-18" type="curve" smooth="yes"/>
      <point x="706" y="262" type="line" smooth="yes"/>
      <point x="709" y="266"/>
      <point x="711" y="274"/>
      <point x="711" y="279" type="curve" smooth="yes"/>
      <point x="711" y="627" type="line" smooth="yes"/>
      <point x="711" y="637"/>
      <point x="704" y="648"/>
      <point x="695" y="653" type="curve" smooth="yes"/>
      <point x="393" y="825" type="line" smooth="yes"/>
      <point x="385" y="830"/>
      <point x="371" y="830"/>
      <point x="363" y="825" type="curve" smooth="yes"/>
      <point x="65" y="645" type="line" smooth="yes"/>
      <point x="57" y="640"/>
      <point x="50" y="629"/>
      <point x="50" y="619" type="curve" smooth="yes"/>
      <point x="50" y="279" type="line" smooth="yes"/>
      <point x="50" y="274"/>
      <point x="53" y="266"/>
      <point x="56" y="261" type="curve" smooth="yes"/>
      <point x="258" y="-19" type="line" smooth="yes"/>
      <point x="263" y="-25"/>
      <point x="274" y="-31"/>
      <point x="282" y="-31" type="curve" smooth="yes"/>
    </contour>
  </outline>
</glyph>
<glyph name="ocircumflex" format="1">
  <advance width="761"/>
  <unicode hex="00F4"/>
  <outline>
    <contour>
      <point x="97" y="903" type="curve" smooth="yes"/>
      <point x="364" y="1081" type="line"/>
      <point x="648" y="913" type="line"/>
      <point x="663" y="903" type="line" smooth="yes"/>
      <point x="677" y="894"/>
      <point x="696" y="898"/>
      <point x="705" y="911" type="curve" smooth="yes"/>
      <point x="714" y="925"/>
      <point x="710" y="944"/>
      <point x="697" y="953" type="curve" smooth="yes"/>
      <point x="679" y="965" type="line"/>
      <point x="379" y="1143" type="line" smooth="yes"/>
      <point x="370" y="1148"/>
      <point x="355" y="1148"/>
      <point x="347" y="1142" type="curve" smooth="yes"/>
      <point x="63" y="953" type="line" smooth="yes"/>
      <point x="50" y="944"/>
      <point x="46" y="925"/>
      <point x="55" y="911" type="curve" smooth="yes"/>
      <point x="64" y="898"/>
      <point x="83" y="894"/>
    </contour>
    <contour>
      <point x="468" y="29" type="line"/>
      <point x="297" y="29" type="line"/>
      <point x="110" y="289" type="line"/>
      <point x="110" y="602" type="line"/>
      <point x="379" y="764" type="line"/>
      <point x="651" y="610" type="line"/>
      <point x="651" y="288" type="line"/>
    </contour>
    <contour>
      <point x="474" y="-31" type="line" smooth="yes"/>
      <point x="476" y="-31"/>
      <point x="478" y="-31"/>
      <point x="479" y="-30" type="curve"/>
      <point x="490" y="-32"/>
      <point x="502" y="-28"/>
      <point x="509" y="-18" type="curve" smooth="yes"/>
      <point x="706" y="262" type="line" smooth="yes"/>
      <point x="709" y="266"/>
      <point x="711" y="274"/>
      <point x="711" y="279" type="curve" smooth="yes"/>
      <point x="711" y="627" type="line" smooth="yes"/>
      <point x="711" y="637"/>
      <point x="704" y="648"/>
      <point x="695" y="653" type="curve" smooth="yes"/>
      <point x="393" y="825" type="line" smooth="yes"/>
      <point x="385" y="830"/>
      <point x="371" y="830"/>
      <point x="363" y="825" type="curve" smooth="yes"/>
      <point x="65" y="645" type="line" smooth="yes"/>
      <point x="57" y="640"/>
      <point x="50" y="629"/>
      <point x="50" y="619" type="curve" smooth="yes"/>
      <point x="50" y="279" type="line" smooth="yes"/>
      <point x="50" y="274"/>
      <point x="53" y="266"/>
      <point x="56" y="261" type="curve" smooth="yes"/>
      <point x="258" y="-19" type="line" smooth="yes"/>
      <point x="263" y="-25"/>
      <point x="274" y="-31"/>
      <point x="282" y="-31" type="curve" smooth="yes"/>
    </contour>
  </outline>
</glyph>
<glyph name="uacute" format="1">
  <advance width="761"/>
  <unicode hex="00FA"/>
  <outline>
    <contour>
      <point x="356" y="911" type="curve" smooth="yes"/>
      <point x="365" y="898"/>
      <point x="384" y="894"/>
      <point x="398" y="903" type="curve" smooth="yes"/>
      <point x="681" y="1092" type="line"/>
      <point x="698" y="1103" type="line" smooth="yes"/>
      <point x="711" y="1112"/>
      <point x="715" y="1131"/>
      <point x="706" y="1145" type="curve" smooth="yes"/>
      <point x="697" y="1158"/>
      <point x="678" y="1162"/>
      <point x="664" y="1153" type="curve" smooth="yes"/>
      <point x="648" y="1142" type="line"/>
      <point x="364" y="953" type="line" smooth="yes"/>
      <point x="351" y="944"/>
      <point x="347" y="925"/>
    </contour>
    <contour>
      <point x="351" y="-30" type="curve" smooth="yes"/>
      <point x="677" y="71" type="line" smooth="yes"/>
      <point x="688" y="74"/>
      <point x="698" y="87"/>
      <point x="698" y="99" type="curve" smooth="yes"/>
      <point x="709" y="449" type="line"/>
      <point x="709" y="799" type="line" smooth="yes"/>
      <point x="709" y="815"/>
      <point x="695" y="829"/>
      <point x="679" y="829" type="curve" smooth="yes"/>
      <point x="663" y="829"/>
      <point x="649" y="815"/>
      <point x="649" y="799" type="curve" smooth="yes"/>
      <point x="649" y="449" type="line"/>
      <point x="639" y="122" type="line"/>
      <point x="349" y="33" type="line"/>
      <point x="110" y="243" type="line"/>
      <point x="110" y="799" type="line" smooth="yes"/>
      <point x="110" y="815"/>
      <point x="96" y="829"/>
      <point x="80" y="829" type="curve" smooth="yes"/>
      <point x="64" y="829"/>
      <point x="50" y="815"/>
      <point x="50" y="799" type="curve" smooth="yes"/>
      <point x="50" y="229" type="line" smooth="yes"/>
      <point x="50" y="222"/>
      <point x="55" y="211"/>
      <point x="60" y="206" type="curve" smooth="yes"/>
      <point x="322" y="-24" type="line" smooth="yes"/>
      <point x="329" y="-30"/>
      <point x="342" y="-32"/>
    </contour>
  </outline>
</glyph>
<glyph name="circumflex" format="1">
  <advance width="760"/>
  <unicode hex="02C6"/>
  <outline>
    <contour>
      <point x="97" y="903" type="curve" smooth="yes"/>
      <point x="364" y="1081" type="line"/>
      <point x="648" y="913" type="line"/>
      <point x="663" y="903" type="line" smooth="yes"/>
      <point x="677" y="894"/>
      <point x="696" y="898"/>
      <point x="705" y="911" type="curve" smooth="yes"/>
      <point x="714" y="925"/>
      <point x="710" y="944"/>
      <point x="697" y="953" type="curve" smooth="yes"/>
      <point x="679" y="965" type="line"/>
      <point x="379" y="1143" type="line" smooth="yes"/>
      <point x="370" y="1148"/>
      <point x="355" y="1148"/>
      <point x="347" y="1142" type="curve" smooth="yes"/>
      <point x="63" y="953" type="line" smooth="yes"/>
      <point x="50" y="944"/>
      <point x="46" y="925"/>
      <point x="55" y="911" type="curve" smooth="yes"/>
      <point x="64" y="898"/>
      <point x="83" y="894"/>
    </contour>
  </outline>
</glyph>
<glyph name="tilde" format="1">
  <advance width="760"/>
  <unicode hex="02DC"/>
  <outline>
    <contour>
      <point x="97" y="904" type="curve" smooth="yes"/>
      <point x="370" y="1098" type="line"/>
      <point x="680" y="1098" type="line" smooth="yes"/>
      <point x="696" y="1098"/>
      <point x="710" y="1112"/>
      <point x="710" y="1128" type="curve" smooth="yes"/>
      <point x="710" y="1144"/>
      <point x="696" y="1158"/>
      <point x="680" y="1158" type="curve" smooth="yes"/>
      <point x="360" y="1158" type="line" smooth="yes"/>
      <point x="355" y="1158"/>
      <point x="347" y="1155"/>
      <point x="343" y="1152" type="curve" smooth="yes"/>
      <point x="63" y="952" type="line" smooth="yes"/>
      <point x="49" y="943"/>
      <point x="46" y="924"/>
      <point x="56" y="911" type="curve" smooth="yes"/>
      <point x="65" y="897"/>
      <point x="84" y="894"/>
    </contour>
  </outline>
</glyph>
<glyph name="quoteright" format="1">
  <advance width="260"/>
  <unicode hex="2019"/>
  <outline>
    <contour>
      <point x="193" y="826" type="curve" smooth="yes"/>
      <point x="179" y="833"/>
      <point x="160" y="827"/>
      <point x="153" y="812" type="curve" smooth="yes"/>
      <point x="53" y="612" type="line" smooth="yes"/>
      <point x="46" y="598"/>
      <point x="52" y="579"/>
      <point x="67" y="572" type="curve" smooth="yes"/>
      <point x="81" y="565"/>
      <point x="100" y="571"/>
      <point x="107" y="586" type="curve" smooth="yes"/>
      <point x="207" y="786" type="line" smooth="yes"/>
      <point x="214" y="800"/>
      <point x="208" y="819"/>
    </contour>
  </outline>
</glyph>
<glyph name="quotesinglbase" format="1">
  <advance width="260"/>
  <unicode hex="201A"/>
  <outline>
    <contour>
      <point x="193" y="162" type="curve" smooth="yes"/>
      <point x="179" y="169"/>
      <point x="160" y="163"/>
      <point x="153" y="148" type="curve" smooth="yes"/>
      <point x="53" y="-52" type="line" smooth="yes"/>
      <point x="46" y="-66"/>
      <point x="52" y="-85"/>
      <point x="67" y="-92" type="curve" smooth="yes"/>
      <point x="81" y="-99"/>
      <point x="100" y="-93"/>
      <point x="107" y="-78" type="curve" smooth="yes"/>
      <point x="207" y="122" type="line" smooth="yes"/>
      <point x="214" y="136"/>
      <point x="208" y="155"/>
    </contour>
  </outline>
</glyph>
<glyph name="quotedblright" format="1">
  <advance width="360"/>
  <unicode hex="201D"/>
  <outline>
    <contour>
      <point x="293" y="826" type="curve" smooth="yes"/>
      <point x="279" y="833"/>
      <point x="260" y="827"/>
      <point x="253" y="812" type="curve" smooth="yes"/>
      <point x="153" y="612" type="line" smooth="yes"/>
      <point x="146" y="598"/>
      <point x="152" y="579"/>
      <point x="167" y="572" type="curve" smooth="yes"/>
      <point x="181" y="565"/>
      <point x="200" y="571"/>
      <point x="207" y="586" type="curve" smooth="yes"/>
      <point x="307" y="786" type="line" smooth="yes"/>
      <point x="314" y="800"/>
      <point x="308" y="819"/>
    </contour>
    <contour>
      <point x="193" y="826" type="curve" smooth="yes"/>
      <point x="179" y="833"/>
      <point x="160" y="827"/>
      <point x="153" y="812" type="curve" smooth="yes"/>
      <point x="53" y="612" type="line" smooth="yes"/>
      <point x="46" y="598"/>
      <point x="52" y="579"/>
      <point x="67" y="572" type="curve" smooth="yes"/>
      <point x="81" y="565"/>
      <point x="100" y="571"/>
      <point x="107" y="586" type="curve" smooth="yes"/>
      <point x="207" y="786" type="line" smooth="yes"/>
      <point x="214" y="800"/>
      <point x="208" y="819"/>
    </contour>
  </outline>
</glyph>
